<svg xmlns="http://www.w3.org/2000/svg" width="2451.469" height="622.986" viewBox="0 0 2451.469 622.986">
  <g id="Group_52" data-name="Group 52" transform="translate(-902.094 -30)">
    <g id="Group_1" data-name="Group 1" transform="translate(902.094 30)">
      <path id="Path_1" data-name="Path 1" d="M319.174,264.019a79.39,79.39,0,0,1-16.613-18.439c-20.465-31.727-22.453-77.49-7.591-111.842,9.522-22.01,24.006-39.8,47.837-46.627,8.936-2.56,17.612-3.134,26.527-3.162,1.883-8.781,3.868-17.533,6.462-26.15,11.636-38.684,33.189-58.817,75.166-53.541,4.263.538,8.484,1.188,12.674,2.146l.386.077C494.2-4.562,538.4,6.847,566.47,18.681c8.84,3.727,13.56,7.859,19.952,14.746,10.853,11.688,18.721,39.317,22.493,59.331.966-.011,1.933-.009,2.9.007,38.08.622,88.589,25.873,77.157,71.287,72.6,45.443,118.2,123.974,118.2,210.62,0,140.911-117.971,250.314-257.219,250.314s-257.217-109.4-257.217-250.314a244.015,244.015,0,0,1,26.443-110.652" transform="translate(-285.274 -2)" fill="#fff" fill-rule="evenodd"/>
      <path id="Path_2" data-name="Path 2" d="M382.275,335.429c3.773-6.753,21.146-7.214,35.09-9.235,19.171-2.774,23.679,12.2,21.538,18.746-7.641.886-9.731-4.35-13.948-9.015-8.627-.2-16.511,1.629-24.96,2.962-10.019,1.586-14.187,4.4-17.719-3.457m245.353-44.378c-13.426-3.655-81.738,10.619-96.692,12.97-47.529,7.473-30.541.3-48.432,38.688-4.972,10.66-17.142,16.5-28.086,7.121-27-23.143-3.175-33.2-54.995-24.822-11.638,1.883-28.7,2.6-34.793,9.254-5.283,12.334,37.944,42.754,53.454,50.54C509.047,430.452,645.763,351.184,627.629,291.051Zm-175.486-188.3c1.045,11.046,7.194,16.5-5.172,18.005L442.219,106c-54.365,9.958-111.654,84.752-104.59,124.439,11.731,7.157,43.142-1.47,59.532-4.22,26.523-4.445,210.682-28.056,221.88-39.192,2.289-17.442-28.395-45.893-37.93-54.038C522.989,87.127,504.8,109.866,452.142,102.752Zm136.719,79.9c-8.349,7.461-6.666-2.774-6.244-8.386C588.421,171.727,589.186,175.532,588.861,182.648ZM477.6,135.194c-8.282.9-7.782-8.531-.2-11.664C480.655,131.608,479.9,130.774,477.6,135.194Zm46.661-4.911c1.222-7.561,1.6-4.282,5.16-5.608,1.974,4.109,3.428,7.534-.223,12.245C526.455,136.093,523.239,136.611,524.261,130.283Zm-97.533.138c2.56,1.526,4.94,1.161,4.7,7.209-.186,4.577-1.981,3.932-4.833,5.129C422.125,137.554,423.091,136.471,426.728,130.422Zm128.253,27.861c.252-8.195,3.532-5.261,5.617-5.735,3.143,6.3,3.566,5.764-.2,11.186C557.034,163.027,554.788,164.583,554.981,158.283ZM497.9,160.936c-.436-6.657,1.728-5.744,5.556-7.339,2.6,6.217,3.032,5.136.234,12.168C499.791,165.333,498.176,165.115,497.9,160.936Zm-49.025,3.026c.465-8.089,3.888-5.306,5.39-5.735,3.657,6.716,3.564,6.133-.207,11.343C450.7,168.64,448.508,170.4,448.879,163.961Zm-48.9,7.825c-3.33-4.761-1.768-8.188.381-12.168,2.868,1.37,5.079,2.362,4.883,7.152C405.02,172.233,403.6,170.962,399.976,171.786Zm128.268,17.739c-3.793-6.11-2.444-5.258-.531-12.009,2.741,1.09,5.883-1.015,6.16,6.63C534.121,191.038,531.556,188.953,528.245,189.525Zm-49.384-5.17c.45,1.495,1.506,3.889,1.4,5.965-.525,10.648-.15,2.866-2.728,5.858-2.839.375-4.254.616-4.656-4.143C472.362,185.857,475,186.03,478.861,184.356Zm-55.29,22.255c-.8-1.258-4.356-.284-.547-12.229,3.975,1.872,5.562,1.029,5.91,6.614C429.356,207.724,427.023,205.691,423.571,206.611Zm-54.083,6.265c-5.476.924-9.826-7.75.779-11.541C374.246,214.735,370.078,212.044,369.487,212.875Zm81.124,142.17c.393,3.414-.072.865-.765,3.164-12.322,1.717-9.887-9.906-.5-7.409C450.46,353.157,449.846,348.469,450.611,355.045Z" transform="translate(-219.466 126.093)" fill="#ffbc00" fill-rule="evenodd"/>
      <path id="Path_3" data-name="Path 3" d="M601.92,166.9l6.757,41.555L591.816,211.2l-9.235-56.8,21.615-3.516q9.877-1.6,16.126,2.419a18.251,18.251,0,0,1,8.327,12.965q1.4,8.623-5.127,15.766l13.524,21.807-17.712,2.883-11.161-16.949L605.8,175.184l1.333-.216q5.3-.862,4.559-5.477c-.44-2.71-2.706-3.741-6.807-3.073Zm-26.555,11.4,2.051,12.6-10.97,1.783a5.728,5.728,0,0,0-3.057,1.181,2.654,2.654,0,0,0-.568,2.424c.2,1.206.636,1.935,1.336,2.215a8.752,8.752,0,0,0,3.981-.063l11.341-1.845,2.63,16.179-13.242,2.153q-9.366,1.523-15.059-2.126t-7.05-12.095l-3.619-22.253q-1.328-8.177,2.621-13.449c2.649-3.5,6.791-5.724,12.468-6.646l14.646-2.383,2.657,16.352-10.758,1.749q-4.319.7-3.852,3.539a2.521,2.521,0,0,0,1.394,2.133,7.431,7.431,0,0,0,3.768.059ZM517.422,190.6l16.095-2.617a21.7,21.7,0,0,1,7.41,12.781,18.629,18.629,0,0,1-3.812,15,21.514,21.514,0,0,1-14.08,8.1,26.013,26.013,0,0,1-21.054-5.578,30.893,30.893,0,0,1-11.554-20.075q-2.054-12.647,4.8-22.384a27.875,27.875,0,0,1,19.157-11.738,31.167,31.167,0,0,1,9.592.132l2.75,16.917a18.329,18.329,0,0,0-7.573-.607,13.449,13.449,0,0,0-9.117,5.286,13,13,0,0,0-2.217,10.207q.98,6.024,5.06,9t10.041,1.994q3.809-.621,3.433-2.905c-.186-1.149-1.118-1.578-2.805-1.306l-4.032.657Zm-59.669-.263,6.758,41.555-16.861,2.741-9.233-56.8,21.615-3.514q9.877-1.608,16.127,2.417a18.255,18.255,0,0,1,8.327,12.965q1.4,8.623-5.127,15.766l13.524,21.807-17.712,2.88-11.162-16.947-2.371-14.592,1.334-.216q5.3-.862,4.558-5.476c-.44-2.71-2.707-3.741-6.809-3.073Zm-29.625-10.828,5.987,36.831q1.585,9.747-3.27,16.526t-14.494,8.343q-9.621,1.564-15.622-3.271t-7.746-15.465l-5.9-36.29,16.859-2.739,5.894,36.246q.848,5.213,4.568,4.618,3.6-.586,2.755-5.81l-5.892-36.247ZM339.667,193.9l20.579-3.345q18.331-2.981,20.686,11.464,1.161,7.154-4.341,12.915,9.734,2.48,11.377,12.628,1.264,7.772-3.346,13.277a15.454,15.454,0,0,1-5.108,3.977,29.993,29.993,0,0,1-7.905,2.19l-3.207.52-2.367-14.56,2.866-.468a7.167,7.167,0,0,0,3.484-1.235,2.5,2.5,0,0,0,.664-2.453c-.3-1.844-1.869-2.537-4.693-2.078l-3.25.529-2.46-15.13c3.123-.506,4.509-1.84,4.161-3.968-.32-1.974-1.883-2.723-4.708-2.265l-3.094.5,6.758,41.557L348.9,250.693Z" transform="translate(-216.121 186.705)" fill="#d21113"/>
      <path id="Path_4" data-name="Path 4" d="M373.192,124.487l8.795,2.06c-7.216-4.793-4.265-15.286-2.712-25.889,2.4-16.338,7.068-36.9,12.667-51.969,2.939-7.909,6.444-15.609,9.086-22.761C385.508,47,377.094,97.19,373.192,124.487M410.566,17.85l8.551.02c-3.518.6-5.365-.193-9.172,2.548.4,8.2,12.774,8.07,20.292,6.546,8.325-1.69,14.35-4.727,21.4-7.068-.164-.1-.425-.386-.518-.229L442.29,17.9A90.252,90.252,0,0,0,432,16.158C425.5,15.341,415.258,14.725,410.566,17.85Zm-7.087,95.32c14.305,1.522,34.82.154,45.269-6.355,11.5-7.171,16.363-20.874,17.551-34.563,1.549-17.862-6.85-28.519-25.419-24.683C433.94,49,427.48,52.325,420.212,53.1c-8.781.931-13.653-3.677-18.909-6.719,1.39,4.79,7.279,8.468,13.86,8.965,19.491,1.479,46.089-17.092,44.389,19.881C458.11,106.623,433.393,110.507,403.478,113.171Zm116.751-64.03c3.019.443,13.417,4.815,16.2,6.346,4.764,2.619,10.221,6.074,8.593,13.222-8.518,4.007-32.805-5.812-41.082-9.065-12.965-5.092-25.039-10.5-28.728-24.083-6.414-23.625,14.653-16.706,29.062-13.2,9.515,2.317,37.959,12.091,39.862,12.331-2.444-.488-10.226-4.213-13.66-5.551-12.513-4.874-35.172-12.811-48.085-12.329-15.629.584-12.406,17.714-8.886,25.76,4.6,10.523,10.708,14.625,20.143,20.068,12.047,6.95,42.96,21.869,60.453,18.884,11.041-1.885,8.44-16.747-3.057-23.509C544.268,54.036,529.656,49.127,520.229,49.141Zm45.1,61.129c-13.631,2.748-57.7,27.988-59.53,28.431-4.066.983-23.126.055-28.631-.073-18.8-.429-37.734-1.395-56.242-3.248-12.7-1.272-31.9-3.686-44.482-6.932-6.819-1.76-4.888-1.376-6.16-.488.736,1.581-1.495.87,6.05,2.614,46.448,10.739,79.135,8.147,125.878,10.067-2.194,2.062-13.43,8.495-17.964,11.57-3.394,2.3-4.109,1.626-8.607,1.227-12.6-1.12-25.1-1.812-37.557-2.855-17.276-1.442-36.69-3.284-53.641-6.328-4.813-.865-12.563-3.207-16.467-3.475l-1.14,5.787c40.8,10.439,71.4,6.994,107.6,11.92-.779.829-7.975,6.383-9.226,6.9-2.276.934-12.608.759-15.761.818-10.8.2-21.574.025-32.31-.6a197.771,197.771,0,0,1-29.367-3.6c-10.3-2.183-16.388-4.386-21.84-10.7-3.121,8.02,7.836,10.112,14.649,11.9a156.682,156.682,0,0,0,24,4.441c20.933,2.194,44.737-.073,55.978,1.188-2.324,2.41-4.209,3.92-6.807,6.294l-21.056,19.166c-8.963,8.888-34.111,31.3-45.071,35.395-28.438,10.637-59.049,2.358-75.076-23.5-16.5-26.627-9.226-83.811,17.876-99.668,18.546-10.85,41.654-6.271,45.273-8.992-26.541-.007-45.317,1.635-57.831,17.53-10.673,13.556-17.351,36.98-16.074,59.092,1.383,23.947,11.972,40.528,24.814,50.29,14.255,10.834,39.488,15.048,59.36,7.5,18.43-7,31.971-21.635,43.317-31.833,5.593-5.026,13.049-12.722,19.534-18.026,6.907-5.653,12.79-11.343,20.458-17.137,13.86-10.471,29.328-19.484,46.189-28.994C531.234,127.04,550.568,119.276,565.328,110.27ZM404.978,231.085l30.23-13.833c41.557-18.414,83.8-36.444,127.731-48.948,6.683-1.9,10.682-3.684,18.38-3.707,7.479-.02,14.95.375,22.418.57,25.945.675,52.116-22.646,27.549-41.03-19.842-14.848-46.779-11.007-69.317-1.69-19.811,8.188-41.225,19.811-58.51,29.837-20.667,11.991-33.1,23.248-50.638,37.743-7.477,6.18-16.022,15.048-22.924,21.237-14.13,12.67-14.348,10.955-23,17.862ZM334.4,317.853c1.172-5.828,4.987-18.264-4.89-16.09-5.646,1.242-6.457,9.992-7.7,16.486-8.613,44.921-3.713,85.781,13.038,126.761,27.12,66.351,99.129,113.219,109.734,109.662,18.041-6.051-17.73-20.306-32.135-30.925C351.206,478.6,317.648,401.117,334.4,317.853Zm6.515,37.305c-2.2,121.105,100.851,189.078,118.443,185.178.22-.47.452-1.774.452-1.49l.166-4.109c-1.284-3.6-25.069-15.368-38.92-26.55-43.442-35.063-71.8-89.179-70.4-150.994a189.544,189.544,0,0,1,4.155-36.64c2.125-9.824,10.355-23.931,5.933-32.06-9.387-.665-9.324,3.666-15.014,28.076A183.584,183.584,0,0,0,340.912,355.158Zm347.754,45.153a49.579,49.579,0,0,1,1.912,9.894c1.22,13.631-3.212,26.77-10.283,38.268-7.754,12.611-18.77,23.545-30.453,32.535-26.9,20.695-61.656,34.57-95.189,39.263-30.954,4.332-63.126,1.19-91.3-12.949-10.267-5.154-21.31-12.895-30.382-19.915-11.5-8.9-35.6-28.136-28.346-45.064a10.708,10.708,0,0,1,2.038-3.157c9.339-10.2,28.253-10.644,41.27-12.749,8.8-1.422,18.855-3.114,27.777-3.064,6.7.039,13.024,1.279,18.035,6.069,3.716,3.552,5.26,7.679,7.716,11.988a46.23,46.23,0,0,0,10.555,12.386c4.447,3.814,8.333,1.567,10.623-3.346a203.909,203.909,0,0,0,8.018-20.17c1.774-5.158,3.444-10.146,7.443-14.08,4.457-4.384,10.155-5.869,16.111-6.948,8.331-1.51,16.9-2.512,25.285-3.83,6.212-.977,12.461-2.228,18.648-3.375,9.583-1.772,19.173-3.514,28.788-5.115,12.363-2.062,42.295-7.393,53.945-4.222A10.939,10.939,0,0,1,688.665,400.311Zm-256.09,47.617c3.772-6.753,21.146-7.214,35.09-9.235,19.17-2.773,23.679,12.2,21.537,18.746-7.641.886-9.731-4.35-13.948-9.015-8.626-.2-16.51,1.629-24.96,2.962C440.275,452.97,436.107,455.78,432.575,447.928ZM677.929,403.55c-13.427-3.655-81.738,10.619-96.692,12.969-47.529,7.473-30.541.3-48.433,38.688-4.972,10.66-17.142,16.5-28.086,7.121-27-23.143-3.175-33.2-54.994-24.822-11.638,1.883-28.7,2.6-34.793,9.254-5.283,12.334,37.944,42.754,53.454,50.54C559.347,542.951,696.064,463.682,677.929,403.55Zm-175.486-188.3c1.044,11.046,7.193,16.5-5.172,18.005L492.519,218.5c-54.365,9.958-111.653,84.752-104.59,124.439,11.731,7.157,43.142-1.47,59.533-4.22,26.523-4.445,210.681-28.056,221.879-39.193,2.29-17.442-28.394-45.893-37.929-54.038C573.289,199.626,555.1,222.365,502.443,215.251Zm136.718,79.9c-8.35,7.461-6.667-2.773-6.245-8.386C638.72,284.226,639.485,288.03,639.161,295.147ZM527.9,247.693c-8.282.9-7.782-8.531-.2-11.664C530.955,244.106,530.2,243.273,527.9,247.693Zm46.661-4.911c1.222-7.561,1.6-4.282,5.161-5.608,1.973,4.109,3.428,7.534-.223,12.245C576.755,248.592,573.539,249.11,574.561,242.782Zm-97.533.139c2.56,1.526,4.94,1.161,4.7,7.209-.187,4.577-1.981,3.932-4.834,5.129C472.424,250.053,473.391,248.969,477.028,242.921Zm128.253,27.861c.253-8.2,3.532-5.26,5.617-5.735,3.143,6.3,3.566,5.765-.2,11.187C607.334,275.526,605.088,277.082,605.281,270.781ZM548.2,273.434c-.436-6.657,1.729-5.744,5.556-7.339,2.6,6.217,3.032,5.136.234,12.168C550.091,277.832,548.477,277.614,548.2,273.434Zm-49.025,3.025c.466-8.088,3.888-5.306,5.39-5.735,3.657,6.716,3.564,6.133-.207,11.343C501,281.139,498.808,282.895,499.178,276.46Zm-48.9,7.825c-3.33-4.761-1.767-8.188.382-12.168,2.869,1.37,5.079,2.362,4.883,7.153C455.32,284.732,453.9,283.46,450.276,284.285Zm128.269,17.739c-3.793-6.11-2.444-5.258-.532-12.009,2.742,1.09,5.883-1.015,6.16,6.63C584.421,303.537,581.856,301.452,578.545,302.024Zm-49.384-5.17c.45,1.495,1.506,3.889,1.4,5.965-.525,10.648-.15,2.866-2.728,5.858-2.839.375-4.254.615-4.656-4.143C522.662,298.356,525.3,298.529,529.16,296.855Zm-55.289,22.255c-.8-1.258-4.357-.284-.548-12.229,3.975,1.872,5.562,1.029,5.91,6.614C479.656,320.222,477.323,318.19,473.871,319.109Zm-54.084,6.264c-5.476.924-9.826-7.75.779-11.541C424.546,327.234,420.377,324.543,419.787,325.374Zm81.124,142.17c.392,3.414-.073.865-.765,3.164-12.322,1.717-9.887-9.905-.5-7.409C500.759,465.656,500.146,460.968,500.911,467.544ZM494.4,207.435c.089-.091.18-.182.271-.268a10.875,10.875,0,0,1,9.272-3.028,175.485,175.485,0,0,0,29.9,1.274c8.938-.311,17.876-1.045,26.823-.924,31.043.42,53.756,13.315,77.688,32.2.118.093.221.177.336.277A211.277,211.277,0,0,1,663.222,261.6c8.588,10.283,19.089,25.278,17.235,39.388a10.782,10.782,0,0,1-3.209,6.492c-7.112,7.073-34.053,11.809-43.9,13.742-24.5,4.811-49.318,8.722-74,12.495-22.88,3.5-45.788,6.8-68.7,10.053-13.724,1.951-27.663,3.718-41.325,6.01-18.23,3.057-50.927,12.679-67.228,2.732a10.855,10.855,0,0,1-5.2-7.607c-5.9-33.167,22.323-74.328,44.344-96.631,18.414-18.65,43.052-36,69.268-40.8A11.273,11.273,0,0,1,494.4,207.435ZM599.9,187.776a176.679,176.679,0,0,1,36.621,19.931A185.192,185.192,0,0,1,716.224,369.4c-.522,10.65-7.579,35.792-3.634,42.863,7.021.416,6.646,5.379,10.382-16.018C742.877,282.3,668.525,210.69,617.1,183.831q-2.756.831-5.483,1.524C608.515,186.148,604.463,187,599.9,187.776Zm127.24,244.931c11.515,2.112,11.107-3.412,13.933-13.86,22.4-82.848-5.856-176.656-74.295-227.469-9.58-7.114-18.371-13.017-26.386-17.894a82.611,82.611,0,0,1-13.508,6.907c5.408,2.807,11.337,6.187,17.824,10.3,63.98,40.533,100.322,118.325,90.422,195.758C733.5,399.191,724.821,424.183,727.136,432.708ZM410.566,17.85c-12.109,1.217-19.92,19.627-23.743,32.338-4.513,15-6.986,30.307-10.729,46.016-29.278.875-53.714-7.477-71.2,32.942-11.7,27.054-9.326,62.922,5.442,85.817,12.876,19.961,43.015,32.935,76.17,23.491,9.2-2.621,12.272-3.355,17.839-8.529,8.572-7.968,20.417-16.622,31.9-27.452L453.562,186.8c20.453-16.517,23.677-22.9,53.2-39.1,11.264-6.18,22.7-12.454,34.323-18.419,25.489-13.076,54.705-24.763,82.964-11.743,10.039,4.624,25.88,15.538,16.949,31.184-6.215,10.889-20.981,17.324-34.6,18.205-21.729,1.406-26.972-2.442-46.749,5.951,8.545,4.438,78.1,1.354,86.787-30.589,6.438-23.668-27.052-37.03-50.579-37.416-13.4-.218-23.5,3.219-26.771,3.119C568.017,84.14,563.9,68.779,556.676,48.41c-1.543-4.352-3.505-8.961-6.069-11.725-3.387-3.648-5.061-5.81-10.41-8.066a169.823,169.823,0,0,0-26.963-9.281c-16.374-3.984-48.844-9.617-61.754,1.177-18.219,15.234-46.391,11.343-45.491,2.042C406.274,19.606,408.628,19.145,410.566,17.85Z" transform="translate(-269.766 13.594)" fill-rule="evenodd"/>
      <path id="Path_5" data-name="Path 5" d="M626.913,209.441l24.192,12.795-5.336,10.083-24.19-12.795-4.093,7.741-9.778-5.172L621.2,196.578l9.778,5.172Zm-5.131,58.792-20.165-14.668q-5.288-3.847-6.162-9.338t2.962-10.764q3.829-5.264,8.942-5.8t10.91,3.673l19.847,14.437L631.406,255l-19.847-14.435q-2.794-2.034-4.275,0-1.431,1.969,1.361,4l19.847,14.437Zm-29.469,2.814,7.244,7.1-2.3,2.346L603.8,286.9l-7.984,8.147-17.456-17.1q-5.048-4.947-5.144-10.458t4.822-10.519q4.739-4.835,9.539-4.661t10.1,5.363l17.735,17.378-7.984,8.148L590.234,266.35a6.269,6.269,0,0,0-2.569-1.768,2.134,2.134,0,0,0-1.969.788q-1.894,1.935.911,4.681l3.406,3.341ZM559.028,287.02l16.14,23.02-9.342,6.548-22.057-31.465,11.974-8.395q5.469-3.836,10.4-3.232a12.467,12.467,0,0,1,10.276,16.345l14.468,9.181-9.811,6.878-11.636-6.946-5.667-8.081.74-.518c1.958-1.374,2.347-2.912,1.15-4.618q-1.581-2.252-4.988.132Zm-19.064.222,11.051,22.332q2.923,5.911,1.156,11.191t-7.614,8.17q-5.836,2.885-10.616.977t-7.977-8.35l-10.887-22L525.3,294.5l10.875,21.98q1.564,3.162,3.821,2.051,2.183-1.08.62-4.247L529.74,292.3Zm-34.411,35.279,2.665,9.783-3.169.863L507.457,342l-11,3-6.424-23.579q-1.86-6.821.843-11.625t9.476-6.641q6.532-1.779,10.587.8t6.005,9.73l6.526,23.956-11,3-6.328-23.225a6.262,6.262,0,0,0-1.327-2.823,2.128,2.128,0,0,0-2.1-.313q-2.61.712-1.579,4.5l1.254,4.6Zm-27.4-1.542,3.271,27.168L470.1,349.512l-3.271-27.17-8.693,1.048-1.324-10.983,28.655-3.45,1.324,10.982Zm-23.277-8.686.284,10.962a7.561,7.561,0,0,0-1.92-.316,2.974,2.974,0,0,0-2.2,1.02,3.159,3.159,0,0,0-.87,2.326,6.253,6.253,0,0,0,1.092,2.891l.914,1.495a15.775,15.775,0,0,1,2.576,7.868,12.688,12.688,0,0,1-3.737,9.567,13.449,13.449,0,0,1-9.633,4.13,12.626,12.626,0,0,1-5.495-1.145l-.289-11.114a5.566,5.566,0,0,0,2.926.981,3.736,3.736,0,0,0,2.473-.92,2.747,2.747,0,0,0,.943-2.185,10.984,10.984,0,0,0-1.69-3.637,18.135,18.135,0,0,1-2.785-8.936,12.839,12.839,0,0,1,3.625-9.451,12.5,12.5,0,0,1,9.131-4.164A14.788,14.788,0,0,1,454.881,312.293Zm-24.74,15.616-1.029,8.464-7.368-.895a3.8,3.8,0,0,0-2.178.188,1.772,1.772,0,0,0-.816,1.449,1.717,1.717,0,0,0,.445,1.669,5.863,5.863,0,0,0,2.567.7l7.616.925-1.322,10.866-8.892-1.081q-6.293-.767-9.265-4.164t-2.271-9.067l1.817-14.945q.667-5.492,4.181-8.141c2.351-1.754,5.418-2.405,9.231-1.942l9.837,1.195-1.335,10.98-7.225-.877c-1.935-.236-2.976.286-3.13,1.553a1.694,1.694,0,0,0,.5,1.629,4.974,4.974,0,0,0,2.405.736Zm-41.432-11.636L381.318,343.4l-11.005-3,10.1-37.073,14.109,3.843q6.447,1.758,9.131,5.931a12.466,12.466,0,0,1-6,18.348l2.187,17-11.563-3.15-2.094-13.39,2.6-9.522.87.237q3.462.943,4.284-2.067.726-2.655-3.287-3.752Z" transform="translate(-177.158 245.381)" fill="#d21113"/>
      <path id="Path_6" data-name="Path 6" d="M674.376,169.27c72.3,41.455,120.81,117.916,120.81,205.4C795.185,506.3,685.389,613,549.948,613S304.712,506.3,304.712,374.671A232.024,232.024,0,0,1,334.7,260.4a69.924,69.924,0,0,1-22.069-21.312c-18.271-28.324-19.945-69.881-6.662-100.59,8.059-18.625,19.913-34.071,40.142-39.865,10.935-3.132,21.864-2.8,32.9-2.58,2.494-11.659,4.818-23.343,8.263-34.8,10.131-33.675,26.7-49.568,62.2-45.1a114.711,114.711,0,0,1,11.654,1.972l4.064.813c26.309-11.8,70.3-.309,96.629,10.789,7.352,3.1,10.639,6.271,15.827,11.859,10.99,11.841,19.17,48.228,21.177,63.826a97.728,97.728,0,0,1,12.8-.661c30.511.5,75.678,19.854,65.5,57.273a40.957,40.957,0,0,1-2.741,7.255m-355.2,94.748a79.39,79.39,0,0,1-16.613-18.439c-20.465-31.727-22.453-77.49-7.591-111.842,9.522-22.01,24.006-39.8,47.837-46.627,8.936-2.56,17.612-3.134,26.527-3.162,1.883-8.781,3.868-17.533,6.462-26.15,11.636-38.681,33.189-58.817,75.166-53.541,4.263.538,8.484,1.188,12.674,2.146l.386.077C494.2-4.562,538.4,6.847,566.47,18.681c8.84,3.727,13.56,7.859,19.952,14.746,10.853,11.688,18.721,39.317,22.493,59.331.966-.011,1.933-.009,2.9.007,38.08.622,88.589,25.873,77.157,71.287,72.6,45.443,118.2,123.974,118.2,210.62,0,140.911-117.971,250.314-257.219,250.314s-257.217-109.4-257.217-250.314A244.015,244.015,0,0,1,319.174,264.019Z" transform="translate(-285.274 -2)" fill="#d21113" fill-rule="evenodd"/>
    </g>
    <g id="Group_11" data-name="Group 11" transform="translate(1423.987 80.675)">
      <path id="Path_11" data-name="Path 11" d="M837.224,577.514a12.281,12.281,0,0,0-20.612-8.973,115.209,115.209,0,0,1-15.233,11.925c-5.117,3.33-10.378,6.522-15.709,9.544-3.356,1.9-6.712,3.832-10.068,5.736.167-5.189.286-10.354.167-15.471-.286-13.043-2.88-25.23-6.141-37.8a89.78,89.78,0,0,1-1.857-9.4,65.92,65.92,0,0,1-.666-7.8c.524-.809,1.19-1.69,1.642-2.311q4.07-5.387,7.974-10.9a129.82,129.82,0,0,0,8.188-13.21,36.3,36.3,0,0,0,4.808-17.232,65.812,65.812,0,0,0-.429-7.188,25.88,25.88,0,0,0-4.451-12.4,28.008,28.008,0,0,0-11.544-9.737c-5.665-2.806-12.258-3.5-18.518-3.5a35.075,35.075,0,0,0-14.3,2.856,45.576,45.576,0,0,0-10.4,6.5A52.48,52.48,0,0,0,722,466.527,94.515,94.515,0,0,0,716.1,475c-6.284,9.521-12.472,19.089-18.47,28.8-3.975,6.45-8,12.9-12,19.351-17.566,28.3-41.867,61.1-67.168,82.782a42.4,42.4,0,0,1-3.5,2.711q-.214-3.1-.214-6.21a107.334,107.334,0,0,1,.69-11.4c.524-4.832,1.261-9.664,2.094-14.448,1.714-9.806,3.475-19.612,5.189-29.419q2.249-12.746,4.118-25.587a170.59,170.59,0,0,0,1.88-24.111A55.8,55.8,0,0,0,627.388,484a27.647,27.647,0,0,0-5.046-10.687c-.048-.071-.119-.142-.19-.238a19.6,19.6,0,0,0-10.473-6.736,30.75,30.75,0,0,0-8.069-1.048c-1.523,0-3.07.024-4.618.093-1.119.05-2.237.122-3.356.122a18.549,18.549,0,0,1-2.547-.191c-.785-1.285-1.571-2.594-2.38-3.9a29.184,29.184,0,0,0-6.426-7.355,21.625,21.625,0,0,0-14.3-4.832,63.588,63.588,0,0,0-29.871,7.617,107.165,107.165,0,0,0-25.468,18.946,156.453,156.453,0,0,0-21.374,26.753,213.58,213.58,0,0,0-17.827,35.607,244.315,244.315,0,0,0-12.21,37.988c-.643,2.9-1.214,5.855-1.714,8.807-1.238,1.119-2.475,2.237-3.737,3.333a140.9,140.9,0,0,1-11.544,9.044c-3.832,2.737-7.759,5.355-11.806,7.735a78.06,78.06,0,0,1-10.211,5.023,25.023,25.023,0,0,1-3.356,1.092,38.319,38.319,0,0,1-4.951-6.329c-2.571-4-4.879-8.164-7.069-12.4-1.547-2.952-3.023-5.927-4.475-8.95q13.853-17.351,28.752-33.846a190.481,190.481,0,0,1,24.563-22.4A33.982,33.982,0,0,0,468.8,511.607a51.63,51.63,0,0,0,3.094-17.518,52.518,52.518,0,0,0-1.428-12.189,39.324,39.324,0,0,0-4.689-11.636,29.754,29.754,0,0,0-8.854-9.307,24.811,24.811,0,0,0-14-4.165,30.768,30.768,0,0,0-11.663,2.476,42.833,42.833,0,0,0-11.52,7.093,273.523,273.523,0,0,0-25.373,23.611q-6.569,6.962-13,14.019c-1.809,1.976-3.594,3.975-5.355,5.974l-5.213-12.5c-4.641-11.211-9.473-22.9-12.805-34.56-.048-.143-.071-.286-.119-.4a20.352,20.352,0,0,0-9.33-11.329,23.4,23.4,0,0,0-12.282-3.261,32.894,32.894,0,0,0-14.9,3.879,54.662,54.662,0,0,0-11.639,7.926,48.228,48.228,0,0,0-9.021,10.758,27.809,27.809,0,0,0-4.5,14.686,21.937,21.937,0,0,0,.571,4.665,6.7,6.7,0,0,0,.167.738c2.642,9.664,5.712,19.208,9,28.658,3.88,11.21,8.116,22.3,12.52,33.3,2.523,6.281,4.9,12.615,6.879,19.089.928,3.022,1.785,6.117,2.452,9.208-.19.359-.381.693-.571,1.047l-13.353-16.206a12.249,12.249,0,0,0-18.732-.286,169.1,169.1,0,0,1-15.661,15.519A187.456,187.456,0,0,1,259.7,596.1a126.1,126.1,0,0,1-20.85,11.305,45.935,45.935,0,0,1-17.613,4,13.936,13.936,0,0,1-3-.333,3.97,3.97,0,0,1-.714-.357,125.686,125.686,0,0,0,16.828-9.449,122.367,122.367,0,0,0,25.373-22.54A128.234,128.234,0,0,0,278.384,548.6c4.784-10.592,8.283-22.112,8.283-33.825a75.726,75.726,0,0,0-4.308-25.941A60.8,60.8,0,0,0,270.006,468.1c-17.756-19.232-46.913-23.849-70.072-11.972a77.315,77.315,0,0,0-21.35,16.352,93.843,93.843,0,0,0-7.069,8.569q2.428-11.139,4.832-22.254,6.034-27.67,12.02-55.294,4.713-21.739,7.807-43.816c7.521.737,15.043,1.642,22.516,2.759q16.423,2.464,32.823,5.1,15.531,2.5,31.085,4.665a219.015,219.015,0,0,0,30.061,2.118c18.875,0,31.751-19.993,31.751-37.3a32.241,32.241,0,0,0-5.57-18.28c-4.546-6.688-11.687-10.378-19.4-12.163l-.357-.074A638.688,638.688,0,0,0,247.418,296.3c-21.779-1.785-43.628-2.785-65.5-2.785-15.043,0-30.085.355-45.128,1.19a336.916,336.916,0,0,0-41.772,4.784,203.661,203.661,0,0,0-36.7,9.994,107.231,107.231,0,0,0-30.3,17.354,77,77,0,0,0-20.684,26.8C2,364.941,0,377.437,0,389.861a4.592,4.592,0,0,0,.024.571,45.4,45.4,0,0,0,4.594,18.494A39.171,39.171,0,0,0,16.185,422.47c6.617,5.046,14.828,6.783,22.969,6.783,8.259,0,16.518-1.761,23.111-7,6-4.761,10.758-10.473,13.329-17.756,1.785-5.094,2.071-9.711,2.452-15.019.214-3.095.428-6.094,2.142-8.783a23.551,23.551,0,0,1,7.093-6.953,55.954,55.954,0,0,1,12.282-5.95,119.132,119.132,0,0,1,15.638-4.308c5.855-1.19,11.782-2.092,17.732-2.806.4-.048.785-.1,1.19-.119q-7.6,28.883-15.495,57.669-8.354,30.422-17.209,60.649c-9.14,31.061-18.922,62-25.563,93.731L67.716,611.6q-3.892,18.636-7.783,37.273a55.276,55.276,0,0,0-1.285,11.521c0,10.5,2.785,20.9,11.115,27.919,7.164,6.046,15.9,8.664,25.206,8.664A27.032,27.032,0,0,0,108.7,692.9a.97.97,0,0,0,.214-.119c24.659-15.043,27.348-50.269,32.894-75.761.381-1.761.762-3.5,1.142-5.236.452,2.166.952,4.356,1.523,6.569A103.564,103.564,0,0,0,158.591,650.7a75.872,75.872,0,0,0,24.659,23.445c10.735,6.307,22.754,8.974,35.155,8.974a89.739,89.739,0,0,0,24.349-3.4,126.31,126.31,0,0,0,22.183-8.64,145.838,145.838,0,0,0,12.71-7.26,47.286,47.286,0,0,0,9,11.044c6.355,5.712,14.257,8.259,22.707,8.259,6.117,0,11.758-2.428,16.709-5.855a81.887,81.887,0,0,0,13.4-11.951c4.713-5.115,9.164-10.446,13.5-15.874,1.071-1.333,2.118-2.666,3.166-4,1.214,2,2.452,4.023,3.737,6a110.122,110.122,0,0,0,13,16.684c7.045,7.212,16.471,15,27.062,15a81.55,81.55,0,0,0,30.014-5.831,146.83,146.83,0,0,0,26.158-13.448c4.641-3.023,9.211-6.212,13.591-9.64a63.269,63.269,0,0,0,5.879,8.759,56.624,56.624,0,0,0,18.113,15.114,48.1,48.1,0,0,0,22.207,5.474,56.23,56.23,0,0,0,20.541-4,95.133,95.133,0,0,0,17.756-9.211,106.914,106.914,0,0,0,13.686-10.782,66.767,66.767,0,0,0,8.093,11.734,37.253,37.253,0,0,0,28.824,13.139c9.211,0,17.827-2.832,25.73-7.474a106.655,106.655,0,0,0,20.612-15.876,4.106,4.106,0,0,0,.452-.452,47.74,47.74,0,0,0,12.805,13.328,60.082,60.082,0,0,0,19.9,8.736,93.041,93.041,0,0,0,22.374,2.594,147.39,147.39,0,0,0,33.536-4.07,226.949,226.949,0,0,0,33.917-10.9,243.3,243.3,0,0,0,31.942-15.876A177.024,177.024,0,0,0,833.3,634.757a12.222,12.222,0,0,0,4.118-9.235ZM693.843,622.925c-1.809-1.926-3.523-4.023-5.284-6.067l23.635-29.776c.071,4.332-.024,8.664-.309,12.972a78.812,78.812,0,0,1-3.047,18.542c-.524,1.714-2.261,6.331-3.9,7.3-.071.05-.119.074-.19.122C699.674,629.163,697.6,626.95,693.843,622.925ZM529.064,602.291a90.9,90.9,0,0,1,1.833-17.4c.666-3.477,1.547-6.9,2.523-10.282,1.19-4.142,2.547-8.235,4-12.305a149.6,149.6,0,0,1,9.283-21.517,92.468,92.468,0,0,1,9.9-14.829c.286-.357.6-.714.881-1.047L549.1,568.469a9.168,9.168,0,0,0-.167,1.166c-.214,2.19-.571,4.38-.952,6.546q-.821,4.391-1.857,8.711a116.652,116.652,0,0,1-5.736,17.875,58.255,58.255,0,0,1-7.521,13.52,12.873,12.873,0,0,1-1.476,1.595c-.167-.312-.309-.619-.428-.907a23.287,23.287,0,0,1-1.38-5.853A68.444,68.444,0,0,1,529.064,602.291ZM231.09,522.46c-1.38,9.354-10.02,19.113-16.661,25.23a49.551,49.551,0,0,1-6.522,5.094c1.333-11.711,4.641-25.635,12.115-33.56,1.785-1.881,6.379-5.644,9.283-3.951C231.471,516.51,231.4,520.413,231.09,522.46Z" transform="translate(0 -293.512)" fill="#fff" fill-rule="evenodd"/>
      <g id="Group_7" data-name="Group 7" transform="translate(0 0)">
        <path id="Path_12" data-name="Path 12" d="M837.224,577.514a12.281,12.281,0,0,0-20.612-8.973,115.209,115.209,0,0,1-15.233,11.925c-5.117,3.33-10.378,6.522-15.709,9.544-3.356,1.9-6.712,3.832-10.068,5.736.167-5.189.286-10.354.167-15.471-.286-13.043-2.88-25.23-6.141-37.8a89.78,89.78,0,0,1-1.857-9.4,65.92,65.92,0,0,1-.666-7.8c.524-.809,1.19-1.69,1.642-2.311q4.07-5.387,7.974-10.9a129.82,129.82,0,0,0,8.188-13.21,36.3,36.3,0,0,0,4.808-17.232,65.812,65.812,0,0,0-.429-7.188,25.88,25.88,0,0,0-4.451-12.4,28.008,28.008,0,0,0-11.544-9.737c-5.665-2.806-12.258-3.5-18.518-3.5a35.075,35.075,0,0,0-14.3,2.856,45.576,45.576,0,0,0-10.4,6.5A52.48,52.48,0,0,0,722,466.527,94.515,94.515,0,0,0,716.1,475c-6.284,9.521-12.472,19.089-18.47,28.8-3.975,6.45-8,12.9-12,19.351-17.566,28.3-41.867,61.1-67.168,82.782a42.4,42.4,0,0,1-3.5,2.711q-.214-3.1-.214-6.21a107.334,107.334,0,0,1,.69-11.4c.524-4.832,1.261-9.664,2.094-14.448,1.714-9.806,3.475-19.612,5.189-29.419q2.249-12.746,4.118-25.587a170.59,170.59,0,0,0,1.88-24.111A55.8,55.8,0,0,0,627.388,484a27.647,27.647,0,0,0-5.046-10.687c-.048-.071-.119-.142-.19-.238a19.6,19.6,0,0,0-10.473-6.736,30.75,30.75,0,0,0-8.069-1.048c-1.523,0-3.07.024-4.618.093-1.119.05-2.237.122-3.356.122a18.549,18.549,0,0,1-2.547-.191c-.785-1.285-1.571-2.594-2.38-3.9a29.184,29.184,0,0,0-6.426-7.355,21.625,21.625,0,0,0-14.3-4.832,63.588,63.588,0,0,0-29.871,7.617,107.165,107.165,0,0,0-25.468,18.946,156.453,156.453,0,0,0-21.374,26.753,213.58,213.58,0,0,0-17.827,35.607,244.315,244.315,0,0,0-12.21,37.988c-.643,2.9-1.214,5.855-1.714,8.807-1.238,1.119-2.475,2.237-3.737,3.333a140.9,140.9,0,0,1-11.544,9.044c-3.832,2.737-7.759,5.355-11.806,7.735a78.06,78.06,0,0,1-10.211,5.023,25.023,25.023,0,0,1-3.356,1.092,38.319,38.319,0,0,1-4.951-6.329c-2.571-4-4.879-8.164-7.069-12.4-1.547-2.952-3.023-5.927-4.475-8.95q13.853-17.351,28.752-33.846a190.481,190.481,0,0,1,24.563-22.4A33.982,33.982,0,0,0,468.8,511.607a51.63,51.63,0,0,0,3.094-17.518,52.518,52.518,0,0,0-1.428-12.189,39.324,39.324,0,0,0-4.689-11.636,29.754,29.754,0,0,0-8.854-9.307,24.811,24.811,0,0,0-14-4.165,30.768,30.768,0,0,0-11.663,2.476,42.833,42.833,0,0,0-11.52,7.093,273.523,273.523,0,0,0-25.373,23.611q-6.569,6.962-13,14.019c-1.809,1.976-3.594,3.975-5.355,5.974l-5.213-12.5c-4.641-11.211-9.473-22.9-12.805-34.56-.048-.143-.071-.286-.119-.4a20.352,20.352,0,0,0-9.33-11.329,23.4,23.4,0,0,0-12.282-3.261,32.894,32.894,0,0,0-14.9,3.879,54.662,54.662,0,0,0-11.639,7.926,48.228,48.228,0,0,0-9.021,10.758,27.809,27.809,0,0,0-4.5,14.686,21.937,21.937,0,0,0,.571,4.665,6.7,6.7,0,0,0,.167.738c2.642,9.664,5.712,19.208,9,28.658,3.88,11.21,8.116,22.3,12.52,33.3,2.523,6.281,4.9,12.615,6.879,19.089.928,3.022,1.785,6.117,2.452,9.208-.19.359-.381.693-.571,1.047l-13.353-16.206a12.249,12.249,0,0,0-18.732-.286,169.1,169.1,0,0,1-15.661,15.519A187.456,187.456,0,0,1,259.7,596.1a126.1,126.1,0,0,1-20.85,11.305,45.935,45.935,0,0,1-17.613,4,13.936,13.936,0,0,1-3-.333,3.97,3.97,0,0,1-.714-.357,125.686,125.686,0,0,0,16.828-9.449,122.367,122.367,0,0,0,25.373-22.54A128.234,128.234,0,0,0,278.384,548.6c4.784-10.592,8.283-22.112,8.283-33.825a75.726,75.726,0,0,0-4.308-25.941A60.8,60.8,0,0,0,270.006,468.1c-17.756-19.232-46.913-23.849-70.072-11.972a77.315,77.315,0,0,0-21.35,16.352,93.843,93.843,0,0,0-7.069,8.569q2.428-11.139,4.832-22.254,6.034-27.67,12.02-55.294,4.713-21.739,7.807-43.816c7.521.737,15.043,1.642,22.516,2.759q16.423,2.464,32.823,5.1,15.531,2.5,31.085,4.665a219.015,219.015,0,0,0,30.061,2.118c18.875,0,31.751-19.993,31.751-37.3a32.241,32.241,0,0,0-5.57-18.28c-4.546-6.688-11.687-10.378-19.4-12.163l-.357-.074A638.688,638.688,0,0,0,247.418,296.3c-21.779-1.785-43.628-2.785-65.5-2.785-15.043,0-30.085.355-45.128,1.19a336.916,336.916,0,0,0-41.772,4.784,203.661,203.661,0,0,0-36.7,9.994,107.231,107.231,0,0,0-30.3,17.354,77,77,0,0,0-20.684,26.8C2,364.941,0,377.437,0,389.861a4.592,4.592,0,0,0,.024.571,45.4,45.4,0,0,0,4.594,18.494A39.171,39.171,0,0,0,16.185,422.47c6.617,5.046,14.828,6.783,22.969,6.783,8.259,0,16.518-1.761,23.111-7,6-4.761,10.758-10.473,13.329-17.756,1.785-5.094,2.071-9.711,2.452-15.019.214-3.095.428-6.094,2.142-8.783a23.551,23.551,0,0,1,7.093-6.953,55.954,55.954,0,0,1,12.282-5.95,119.132,119.132,0,0,1,15.638-4.308c5.855-1.19,11.782-2.092,17.732-2.806.4-.048.785-.1,1.19-.119q-7.6,28.883-15.495,57.669-8.354,30.422-17.209,60.649c-9.14,31.061-18.922,62-25.563,93.731L67.716,611.6q-3.892,18.636-7.783,37.273a55.276,55.276,0,0,0-1.285,11.521c0,10.5,2.785,20.9,11.115,27.919,7.164,6.046,15.9,8.664,25.206,8.664A27.032,27.032,0,0,0,108.7,692.9a.97.97,0,0,0,.214-.119c24.659-15.043,27.348-50.269,32.894-75.761.381-1.761.762-3.5,1.142-5.236.452,2.166.952,4.356,1.523,6.569A103.564,103.564,0,0,0,158.591,650.7a75.872,75.872,0,0,0,24.659,23.445c10.735,6.307,22.754,8.974,35.155,8.974a89.739,89.739,0,0,0,24.349-3.4,126.31,126.31,0,0,0,22.183-8.64,145.838,145.838,0,0,0,12.71-7.26,47.286,47.286,0,0,0,9,11.044c6.355,5.712,14.257,8.259,22.707,8.259,6.117,0,11.758-2.428,16.709-5.855a81.887,81.887,0,0,0,13.4-11.951c4.713-5.115,9.164-10.446,13.5-15.874,1.071-1.333,2.118-2.666,3.166-4,1.214,2,2.452,4.023,3.737,6a110.122,110.122,0,0,0,13,16.684c7.045,7.212,16.471,15,27.062,15a81.55,81.55,0,0,0,30.014-5.831,146.83,146.83,0,0,0,26.158-13.448c4.641-3.023,9.211-6.212,13.591-9.64a63.269,63.269,0,0,0,5.879,8.759,56.624,56.624,0,0,0,18.113,15.114,48.1,48.1,0,0,0,22.207,5.474,56.23,56.23,0,0,0,20.541-4,95.133,95.133,0,0,0,17.756-9.211,106.914,106.914,0,0,0,13.686-10.782,66.767,66.767,0,0,0,8.093,11.734,37.253,37.253,0,0,0,28.824,13.139c9.211,0,17.827-2.832,25.73-7.474a106.655,106.655,0,0,0,20.612-15.876,4.106,4.106,0,0,0,.452-.452,47.74,47.74,0,0,0,12.805,13.328,60.082,60.082,0,0,0,19.9,8.736,93.041,93.041,0,0,0,22.374,2.594,147.39,147.39,0,0,0,33.536-4.07,226.949,226.949,0,0,0,33.917-10.9,243.3,243.3,0,0,0,31.942-15.876A177.024,177.024,0,0,0,833.3,634.757a12.222,12.222,0,0,0,4.118-9.235ZM130.909,614.645c-4.594,21.088-7.5,56.219-27.824,68.62a16.268,16.268,0,0,1-8.116,2.523c-6.641,0-12.877-1.69-17.994-6.022-5.665-4.761-7.164-12.305-7.164-19.374a46.346,46.346,0,0,1,1.047-9.236q3.856-18.636,7.783-37.273,4.07-19.494,8.164-38.987c6.522-31.228,16.328-62.265,25.325-92.874q8.89-30.315,17.256-60.816c6.736-24.442,13.234-48.958,19.66-73.473-5.831.547-11.615,1.19-17.423,1.857-6.236.738-12.472,1.713-18.637,2.952a128.709,128.709,0,0,0-17.113,4.713,66.422,66.422,0,0,0-14.733,7.164,34.867,34.867,0,0,0-10.354,10.258c-8.283,12.948,2.071,24.873-15.471,38.844-4.5,3.57-10.544,4.57-16.161,4.57-5.593,0-11.639-1-16.185-4.5a28.239,28.239,0,0,1-8.354-9.688,34.754,34.754,0,0,1-3.451-14v-.047c0-10.761,1.666-21.683,6.284-31.466a65.243,65.243,0,0,1,17.685-22.945,96.74,96.74,0,0,1,27.182-15.542,192.093,192.093,0,0,1,34.679-9.426,329.42,329.42,0,0,1,40.415-4.641c14.828-.809,29.681-1.142,44.509-1.142,21.564,0,43.1.976,64.6,2.737a621.277,621.277,0,0,1,70.405,10.045h.048c4.856,1.119,9.735,3.261,12.615,7.522a21.015,21.015,0,0,1,3.642,12.019c0,10.973-8.14,26.134-20.565,26.134a208.5,208.5,0,0,1-28.538-2.023q-15.423-2.178-30.823-4.617-16.459-2.678-32.941-5.118c-11.258-1.689-22.564-2.9-33.894-3.736q-3.249,26.919-9,53.456-6,27.67-12.02,55.293-6.141,28.277-12.329,56.529Q142.013,563.781,130.909,614.645ZM825.871,626.4a165.057,165.057,0,0,1-25.539,18.446,229.721,229.721,0,0,1-30.466,15.138,215.312,215.312,0,0,1-32.228,10.353,135.953,135.953,0,0,1-30.99,3.785,83.073,83.073,0,0,1-19.708-2.264,49.128,49.128,0,0,1-16.209-7.09,37.6,37.6,0,0,1-11.377-12.853,41.184,41.184,0,0,1-4.26-11.758,151.937,151.937,0,0,1-11.806,12.948,95.616,95.616,0,0,1-18.446,14.234,39.487,39.487,0,0,1-20.065,5.9,26.053,26.053,0,0,1-20.422-9.307c-5.95-6.807-10.092-15.828-13.115-24.4a99.426,99.426,0,0,1-9.426,10.33,95.856,95.856,0,0,1-13.8,11.163,84.206,84.206,0,0,1-15.662,8.117,45.506,45.506,0,0,1-16.471,3.237,36.726,36.726,0,0,1-17.066-4.239,45.706,45.706,0,0,1-14.543-12.184,62.014,62.014,0,0,1-10.092-19.232l-.286-.857-3.285,3a166.841,166.841,0,0,1-20.612,15.614,136.465,136.465,0,0,1-24.183,12.424,70.43,70.43,0,0,1-25.9,5.046c-6.9,0-14.567-7.045-19.089-11.663a96.584,96.584,0,0,1-11.591-14.947,227.817,227.817,0,0,1-11.591-20.279c-4.4,5.879-8.854,11.684-13.424,17.423-4.165,5.212-8.45,10.353-12.972,15.257a70.97,70.97,0,0,1-11.544,10.33c-3,2.094-6.617,3.88-10.354,3.88-5.689,0-10.973-1.571-15.257-5.4a38.469,38.469,0,0,1-9.378-13.448,62.325,62.325,0,0,1-2.333-6.189c-1.309,1-2.642,1.952-3.975,2.9a141.2,141.2,0,0,1-18.494,11.282,112.122,112.122,0,0,1-20.208,7.855,78.725,78.725,0,0,1-21.3,3c-10.378,0-20.493-2.142-29.49-7.426A64.3,64.3,0,0,1,167.9,644.49a92.176,92.176,0,0,1-12.591-28.869c-8.307-32.7-2.761-59.814,7.26-91.16a147.38,147.38,0,0,1,10.044-24.113,94.576,94.576,0,0,1,14.162-20.277,65.858,65.858,0,0,1,18.256-14c18.78-9.64,42.391-5.95,56.767,9.592a49.715,49.715,0,0,1,10.068,16.971A64.851,64.851,0,0,1,275.5,514.77c0,10.071-3.189,20.139-7.283,29.231A117.458,117.458,0,0,1,251.2,571.516a110.327,110.327,0,0,1-23.064,20.446,115.409,115.409,0,0,1-27.8,13.591,66.118,66.118,0,0,0,4.594,7.995,25.153,25.153,0,0,0,5.022,5.524,16.764,16.764,0,0,0,5.236,2.761,24.7,24.7,0,0,0,6.046.738,56.987,56.987,0,0,0,21.969-4.88,137.6,137.6,0,0,0,22.707-12.282,202.785,202.785,0,0,0,20.945-16.137,182.423,182.423,0,0,0,16.685-16.542,1.041,1.041,0,0,1,.857-.383,1.057,1.057,0,0,1,.857.407c10.282,12.5,20.874,19.327,21.564,26.491.262,2.642-17.328,21.112-20.327,24.3-3.261,17.209,31.323-28.538,35.25-35.2-.738-4.88-4.26-15.281-5.712-19.993-2.071-6.76-4.57-13.448-7.188-19.994-4.356-10.83-8.521-21.755-12.353-32.8-3.189-9.211-6.189-18.542-8.759-27.943a.087.087,0,0,1-.024-.071,11.477,11.477,0,0,1-.333-2.38,16.872,16.872,0,0,1,2.832-8.807,37.729,37.729,0,0,1,6.974-8.331,43.862,43.862,0,0,1,9.283-6.284,21.806,21.806,0,0,1,9.806-2.642,12.264,12.264,0,0,1,6.545,1.666,9.193,9.193,0,0,1,4.427,5.165.023.023,0,0,0,.024.023c5.617,19.78,17.78,45.6,25.539,65.907.476-.786,1.023-1.547,1.428-2.118,1.857-2.62,3.927-5.117,6-7.569,3.047-3.618,6.212-7.165,9.4-10.663,4.237-4.665,8.545-9.283,12.853-13.852A260.518,260.518,0,0,1,426.812,475a32.792,32.792,0,0,1,8.616-5.355,19.453,19.453,0,0,1,7.5-1.69,13.932,13.932,0,0,1,7.807,2.285,18.6,18.6,0,0,1,5.522,5.879,27.913,27.913,0,0,1,3.332,8.355,40.824,40.824,0,0,1,1.119,9.615,39.53,39.53,0,0,1-2.428,13.71,22.762,22.762,0,0,1-7.426,10.615,199.469,199.469,0,0,0-25.991,23.707q-17.53,19.315-33.537,39.844c2.38,5.284,4.927,10.5,7.593,15.637,2.356,4.523,4.855,9.021,7.616,13.305a47.049,47.049,0,0,0,7.022,8.735c1.5,1.4,3.523,2.928,5.689,2.928a26.224,26.224,0,0,0,9.021-2.071A92.077,92.077,0,0,0,440,614.738c4.38-2.568,8.592-5.377,12.734-8.3,4.284-3.071,8.45-6.284,12.4-9.735,2.333-2.023,4.594-4.12,6.807-6.26.6-4,1.333-7.949,2.214-11.9a230.648,230.648,0,0,1,11.639-36.2,207.1,207.1,0,0,1,16.875-33.774,145.781,145.781,0,0,1,19.851-24.849A96.36,96.36,0,0,1,545.3,466.717a52.7,52.7,0,0,1,24.682-6.331A10.847,10.847,0,0,1,577.1,462.6a18.685,18.685,0,0,1,4.094,4.665c.976,1.594,1.952,3.165,2.9,4.76a7.83,7.83,0,0,0,3.118,3.047,12.436,12.436,0,0,0,4,1.261,31.211,31.211,0,0,0,4.427.355c1.309,0,2.642-.069,3.927-.143,1.357-.068,2.713-.068,4.046-.068a19.719,19.719,0,0,1,5.284.664,8.687,8.687,0,0,1,4.689,3.118c.024,0,.024,0,.024.026a16.7,16.7,0,0,1,2.928,6.4,45.506,45.506,0,0,1,1,10.782,158.255,158.255,0,0,1-1.761,22.514c-1.214,8.452-2.571,16.854-4.046,25.256-1.714,9.806-3.475,19.613-5.189,29.419-.88,5.021-1.666,10.092-2.19,15.186a117.2,117.2,0,0,0-.762,12.591c0,2.856.1,5.758.381,8.616a38.878,38.878,0,0,0,1.095,6.379c.762,2.808,2.333,4.712,5.379,4.712a15.112,15.112,0,0,0,7.26-2.094,44.81,44.81,0,0,0,8.021-5.641c25.539-21.874,51.388-56.363,69.406-85.376q6.034-9.676,12.02-19.375c5.951-9.664,12.139-19.184,18.351-28.633a87.857,87.857,0,0,1,5.26-7.593,44.6,44.6,0,0,1,6.4-6.665,35.32,35.32,0,0,1,7.855-4.9,24.11,24.11,0,0,1,9.759-1.9c4.38,0,9.616.4,13.591,2.356a17.157,17.157,0,0,1,7.14,5.856,15.057,15.057,0,0,1,2.666,7.283,59.478,59.478,0,0,1,.357,6.164,25.449,25.449,0,0,1-3.451,11.925,114.585,114.585,0,0,1-7.5,12.067c-2.523,3.594-5.117,7.141-7.736,10.639-1.238,1.618-3.427,4.642-3.951,6.665a78.331,78.331,0,0,0,.833,11.806,99.95,99.95,0,0,0,2.095,10.568c8.569,33.108,5.165,37.511,5,71.12a99.075,99.075,0,0,1,12.02-7.95c5.117-2.9,10.235-5.831,15.352-8.737,5.522-3.116,10.973-6.424,16.3-9.9a126.428,126.428,0,0,0,16.685-13.067,1.135,1.135,0,0,1,1.214-.214,1.119,1.119,0,0,1,.666,1.024l.19,48.008A1.107,1.107,0,0,1,825.871,626.4Z" transform="translate(0 -293.512)" fill="#d21113" fill-rule="evenodd"/>
      </g>
      <g id="Group_8" data-name="Group 8" transform="translate(195.793 210.199)">
        <path id="Path_13" data-name="Path 13" d="M82.617,437.586c-.19,3.237-.333,6.5-.357,9.735a31.571,31.571,0,0,0,12.377-3.665,60.335,60.335,0,0,0,13.829-9.64C164.661,382.318,87.711,347.065,82.617,437.586Zm34.941-37.012c-1.38,9.354-10.02,19.112-16.661,25.229a49.6,49.6,0,0,1-6.522,5.094c1.333-11.71,4.641-25.634,12.115-33.56,1.785-1.881,6.379-5.643,9.283-3.951C117.939,394.623,117.867,398.527,117.558,400.574Z" transform="translate(-82.26 -381.825)" fill="#d21113" fill-rule="evenodd"/>
      </g>
      <g id="Group_9" data-name="Group 9" transform="translate(517.901 209.809)">
        <path id="Path_14" data-name="Path 14" d="M260.481,385.781A53.391,53.391,0,0,0,247.7,397.158a102.636,102.636,0,0,0-11.116,16.613,160.073,160.073,0,0,0-10,23.111c-1.523,4.282-2.952,8.59-4.213,12.972-1.071,3.688-2.023,7.45-2.761,11.234a103.477,103.477,0,0,0-2.023,19.541,81.768,81.768,0,0,0,.6,10.235,33.556,33.556,0,0,0,2.166,8.735,17.083,17.083,0,0,0,4,6.093,8.354,8.354,0,0,0,5.95,2.142c4.689,0,8.283-2.761,11.068-6.331a69.685,69.685,0,0,0,9.044-16.113A130.413,130.413,0,0,0,256.7,465.8c.714-3.073,1.4-6.165,1.952-9.259.452-2.5.857-5,1.1-7.522,0-.047,0-.071.024-.095l12.948-67.266A25.893,25.893,0,0,0,260.481,385.781Zm-11.687,61.028a9.111,9.111,0,0,0-.167,1.166c-.215,2.19-.571,4.38-.952,6.546q-.821,4.392-1.857,8.712a116.634,116.634,0,0,1-5.736,17.875,58.255,58.255,0,0,1-7.521,13.52,12.946,12.946,0,0,1-1.476,1.595c-.166-.312-.309-.619-.428-.907a23.289,23.289,0,0,1-1.381-5.853,68.467,68.467,0,0,1-.523-8.831,90.893,90.893,0,0,1,1.833-17.4c.666-3.478,1.547-6.9,2.523-10.282,1.19-4.142,2.547-8.236,4-12.306a149.62,149.62,0,0,1,9.282-21.517,92.467,92.467,0,0,1,9.9-14.829c.286-.357.6-.714.881-1.047Z" transform="translate(-217.59 -381.661)" fill="#d21113" fill-rule="evenodd"/>
      </g>
      <g id="Group_10" data-name="Group 10" transform="translate(673.326 265.96)">
        <path id="Path_15" data-name="Path 15" d="M330.875,411.274c-.476-2-.976-4.023-1.476-6.022l-46.509,58.6c9.212,4.4,17.78,29.561,37.321,17.447,0-.024,0-.024.024-.024C336.111,471.8,333.707,422.842,330.875,411.274Zm-9.426,34.56a78.819,78.819,0,0,1-3.046,18.541c-.523,1.714-2.261,6.331-3.9,7.3-.071.05-.119.074-.191.122-5.069,3.142-7.14.928-10.9-3.1-1.808-1.926-3.522-4.023-5.284-6.067l23.635-29.776C321.83,437.194,321.734,441.526,321.449,445.835Z" transform="translate(-282.89 -405.252)" fill="#d21113" fill-rule="evenodd"/>
      </g>
    </g>
    <g id="Group_35" data-name="Group 35" transform="translate(2261.4 80.675)">
      <path id="Path_16" data-name="Path 16" d="M663.137,487.345a156.016,156.016,0,0,0-11.843,19.6c-4.368,8.456-27.143,55.383-18.454,63.047a6.832,6.832,0,0,0,4.626,1.425,18.469,18.469,0,0,0,6.938-1.192h.047c17.847-6.353,25.344-63.444,27.494-83.7.28-2.873.584-5.747.864-8.62.047-.677.118-1.331.188-1.986A79.017,79.017,0,0,0,663.137,487.345Zm.351,14.6c-.3,1.845-.794,5.91-1.075,7.779-2.1,13.032-9.578,47.279-17.637,50.713h-.022a5.871,5.871,0,0,1-3.061.514c-.7-.07-1.728-.187-1.915-1.1-1.26-6.167,5.116-25.065,7.5-30.367,1.892-4.251,8.036-18.22,10.325-22.054,1.472-2.5,5.722-11.163,7.522-13.243C665.053,494.61,663.535,501.5,663.488,501.945Z" transform="translate(2.817 -52.135)" fill="#d21113" fill-rule="evenodd"/>
      <g id="Group_12" data-name="Group 12" transform="translate(639.66 202.316)">
        <path id="Path_17" data-name="Path 17" d="M683.181,381.367c-29.97,4.768-51.648,74.986-49.616,100.494a46.948,46.948,0,0,0,3.9,16.282c1.985,4.158,5,8.083,9.974,8.083,25.322,0,34.432-105.772,38.1-125.113C684.746,381.159,683.951,381.252,683.181,381.367Zm-12.03,22.965c-1.73,12.567-3.6,25.111-5.957,37.585-2.336,12.448-5.162,25.625-9.484,37.539-1.005,2.8-4.7,11.983-7.778,15.065a9.769,9.769,0,0,1-.561-1.1A36.036,36.036,0,0,1,644.5,481c-1.1-13.618,5.373-35.9,10.232-48.541,2.779-7.218,9.016-21.234,16.772-30.694C671.383,402.626,671.267,403.491,671.151,404.332Z" transform="translate(-633.433 -381.112)" fill="#d21113" fill-rule="evenodd"/>
      </g>
      <g id="Group_13" data-name="Group 13" transform="translate(812.535 203.871)">
        <path id="Path_18" data-name="Path 18" d="M708.772,429.651a49.814,49.814,0,0,0-.981,6.961c-.164,3.177-.3,6.377-.352,9.554a30.958,30.958,0,0,0,12.171-3.6,59.09,59.09,0,0,0,13.548-9.46C780.369,389.681,726.081,345.067,708.772,429.651Zm32.12-29.176c-1.169,9.344-8.457,18.43-15.161,24.574a47.07,47.07,0,0,1-5.747,4.579c2.289-10.442,6.213-23.383,12.684-31.605.934-1.194,4.9-5.537,6.8-5.281C741.125,393.678,741.078,398.98,740.892,400.475Z" transform="translate(-707.44 -381.778)" fill="#d21113" fill-rule="evenodd"/>
      </g>
      <g id="Group_14" data-name="Group 14" transform="translate(812.535 203.871)">
        <path id="Path_19" data-name="Path 19" d="M708.772,429.651a49.814,49.814,0,0,0-.981,6.961c-.164,3.177-.3,6.377-.352,9.554a30.958,30.958,0,0,0,12.171-3.6,59.09,59.09,0,0,0,13.548-9.46C780.369,389.681,726.081,345.067,708.772,429.651Zm32.12-29.176c-1.169,9.344-8.457,18.43-15.161,24.574a47.07,47.07,0,0,1-5.747,4.579c2.289-10.442,6.213-23.383,12.684-31.605.934-1.194,4.9-5.537,6.8-5.281C741.125,393.678,741.078,398.98,740.892,400.475Z" transform="translate(-707.44 -381.778)" fill="#d21113" fill-rule="evenodd"/>
      </g>
      <g id="Group_15" data-name="Group 15" transform="translate(639.66 202.316)">
        <path id="Path_20" data-name="Path 20" d="M683.181,381.367c-29.97,4.768-51.648,74.986-49.616,100.494a46.948,46.948,0,0,0,3.9,16.282c1.985,4.158,5,8.083,9.974,8.083,25.322,0,34.432-105.772,38.1-125.113C684.746,381.159,683.951,381.252,683.181,381.367Zm-12.03,22.965c-1.73,12.567-3.6,25.111-5.957,37.585-2.336,12.448-5.162,25.625-9.484,37.539-1.005,2.8-4.7,11.983-7.778,15.065a9.769,9.769,0,0,1-.561-1.1A36.036,36.036,0,0,1,644.5,481c-1.1-13.618,5.373-35.9,10.232-48.541,2.779-7.218,9.016-21.234,16.772-30.694C671.383,402.626,671.267,403.491,671.151,404.332Z" transform="translate(-633.433 -381.112)" fill="#d21113" fill-rule="evenodd"/>
      </g>
      <path id="Path_21" data-name="Path 21" d="M663.137,487.345a156.016,156.016,0,0,0-11.843,19.6c-4.368,8.456-27.143,55.383-18.454,63.047a6.832,6.832,0,0,0,4.626,1.425,18.469,18.469,0,0,0,6.938-1.192h.047c17.847-6.353,25.344-63.444,27.494-83.7.28-2.873.584-5.747.864-8.62.047-.677.118-1.331.188-1.986A79.017,79.017,0,0,0,663.137,487.345Zm.351,14.6c-.3,1.845-.794,5.91-1.075,7.779-2.1,13.032-9.578,47.279-17.637,50.713h-.022a5.871,5.871,0,0,1-3.061.514c-.7-.07-1.728-.187-1.915-1.1-1.26-6.167,5.116-25.065,7.5-30.367,1.892-4.251,8.036-18.22,10.325-22.054,1.472-2.5,5.722-11.163,7.522-13.243C665.053,494.61,663.535,501.5,663.488,501.945Z" transform="translate(2.817 -52.135)" fill="#d21113" fill-rule="evenodd"/>
      <path id="Path_22" data-name="Path 22" d="M663.137,487.345a156.016,156.016,0,0,0-11.843,19.6c-4.368,8.456-27.143,55.383-18.454,63.047a6.832,6.832,0,0,0,4.626,1.425,18.469,18.469,0,0,0,6.938-1.192h.047c17.847-6.353,25.344-63.444,27.494-83.7.28-2.873.584-5.747.864-8.62.047-.677.118-1.331.188-1.986A79.017,79.017,0,0,0,663.137,487.345Zm.351,14.6c-.3,1.845-.794,5.91-1.075,7.779-2.1,13.032-9.578,47.279-17.637,50.713h-.022a5.871,5.871,0,0,1-3.061.514c-.7-.07-1.728-.187-1.915-1.1-1.26-6.167,5.116-25.065,7.5-30.367,1.892-4.251,8.036-18.22,10.325-22.054,1.472-2.5,5.722-11.163,7.522-13.243C665.053,494.61,663.535,501.5,663.488,501.945Z" transform="translate(2.817 -52.135)" fill="#d21113" fill-rule="evenodd"/>
      <g id="Group_16" data-name="Group 16" transform="translate(639.66 202.316)">
        <path id="Path_23" data-name="Path 23" d="M683.181,381.367c-29.97,4.768-51.648,74.986-49.616,100.494a46.948,46.948,0,0,0,3.9,16.282c1.985,4.158,5,8.083,9.974,8.083,25.322,0,34.432-105.772,38.1-125.113C684.746,381.159,683.951,381.252,683.181,381.367Zm-12.03,22.965c-1.73,12.567-3.6,25.111-5.957,37.585-2.336,12.448-5.162,25.625-9.484,37.539-1.005,2.8-4.7,11.983-7.778,15.065a9.769,9.769,0,0,1-.561-1.1A36.036,36.036,0,0,1,644.5,481c-1.1-13.618,5.373-35.9,10.232-48.541,2.779-7.218,9.016-21.234,16.772-30.694C671.383,402.626,671.267,403.491,671.151,404.332Z" transform="translate(-633.433 -381.112)" fill="#d21113" fill-rule="evenodd"/>
      </g>
      <g id="Group_17" data-name="Group 17" transform="translate(812.535 203.871)">
        <path id="Path_24" data-name="Path 24" d="M708.772,429.651a49.814,49.814,0,0,0-.981,6.961c-.164,3.177-.3,6.377-.352,9.554a30.958,30.958,0,0,0,12.171-3.6,59.09,59.09,0,0,0,13.548-9.46C780.369,389.681,726.081,345.067,708.772,429.651Zm32.12-29.176c-1.169,9.344-8.457,18.43-15.161,24.574a47.07,47.07,0,0,1-5.747,4.579c2.289-10.442,6.213-23.383,12.684-31.605.934-1.194,4.9-5.537,6.8-5.281C741.125,393.678,741.078,398.98,740.892,400.475Z" transform="translate(-707.44 -381.778)" fill="#d21113" fill-rule="evenodd"/>
      </g>
      <g id="Group_18" data-name="Group 18" transform="translate(812.535 203.871)">
        <path id="Path_25" data-name="Path 25" d="M708.772,429.651a49.814,49.814,0,0,0-.981,6.961c-.164,3.177-.3,6.377-.352,9.554a30.958,30.958,0,0,0,12.171-3.6,59.09,59.09,0,0,0,13.548-9.46C780.369,389.681,726.081,345.067,708.772,429.651Zm32.12-29.176c-1.169,9.344-8.457,18.43-15.161,24.574a47.07,47.07,0,0,1-5.747,4.579c2.289-10.442,6.213-23.383,12.684-31.605.934-1.194,4.9-5.537,6.8-5.281C741.125,393.678,741.078,398.98,740.892,400.475Z" transform="translate(-707.44 -381.778)" fill="#d21113" fill-rule="evenodd"/>
      </g>
      <g id="Group_19" data-name="Group 19" transform="translate(639.66 202.316)">
        <path id="Path_26" data-name="Path 26" d="M683.181,381.367c-29.97,4.768-51.648,74.986-49.616,100.494a46.948,46.948,0,0,0,3.9,16.282c1.985,4.158,5,8.083,9.974,8.083,25.322,0,34.432-105.772,38.1-125.113C684.746,381.159,683.951,381.252,683.181,381.367Zm-12.03,22.965c-1.73,12.567-3.6,25.111-5.957,37.585-2.336,12.448-5.162,25.625-9.484,37.539-1.005,2.8-4.7,11.983-7.778,15.065a9.769,9.769,0,0,1-.561-1.1A36.036,36.036,0,0,1,644.5,481c-1.1-13.618,5.373-35.9,10.232-48.541,2.779-7.218,9.016-21.234,16.772-30.694C671.383,402.626,671.267,403.491,671.151,404.332Z" transform="translate(-633.433 -381.112)" fill="#d21113" fill-rule="evenodd"/>
      </g>
      <path id="Path_27" data-name="Path 27" d="M663.137,487.345a156.016,156.016,0,0,0-11.843,19.6c-4.368,8.456-27.143,55.383-18.454,63.047a6.832,6.832,0,0,0,4.626,1.425,18.469,18.469,0,0,0,6.938-1.192h.047c17.847-6.353,25.344-63.444,27.494-83.7.28-2.873.584-5.747.864-8.62.047-.677.118-1.331.188-1.986A79.017,79.017,0,0,0,663.137,487.345Zm.351,14.6c-.3,1.845-.794,5.91-1.075,7.779-2.1,13.032-9.578,47.279-17.637,50.713h-.022a5.871,5.871,0,0,1-3.061.514c-.7-.07-1.728-.187-1.915-1.1-1.26-6.167,5.116-25.065,7.5-30.367,1.892-4.251,8.036-18.22,10.325-22.054,1.472-2.5,5.722-11.163,7.522-13.243C665.053,494.61,663.535,501.5,663.488,501.945Z" transform="translate(2.817 -52.135)" fill="#d21113" fill-rule="evenodd"/>
      <g id="Group_20" data-name="Group 20" transform="translate(0 0)">
        <path id="Path_28" data-name="Path 28" d="M1444.669,518.239a12.047,12.047,0,0,0-13.385,2.359,136.966,136.966,0,0,1-14.693,12.568,87.662,87.662,0,0,1-13.5,8.246,24.913,24.913,0,0,1-10.442,2.92c-.07-.1-.14-.21-.21-.3a13.939,13.939,0,0,1-1.378-3.88c-.024-.067-.047-.161-.07-.255a39.533,39.533,0,0,1-.864-9.39,73.5,73.5,0,0,1,.794-9.344c.677-5.373,1.682-10.7,2.663-16.024,1.075-5.676,2.079-11.376,2.826-17.1.281-2.058.537-4.088.724-6.146.164-1.752.281-3.525.281-5.3a36.008,36.008,0,0,0-2.1-12.38,1.142,1.142,0,0,1-.094-.257,32.322,32.322,0,0,0-6.027-9.834c-.116-.117-.209-.233-.326-.35a29.673,29.673,0,0,0-9.3-6.4,27.676,27.676,0,0,0-11.213-2.359,37.495,37.495,0,0,0-24.574,8.9A75.245,75.245,0,0,0,1330.3,468.74c-.023-1.285-.094-2.569-.187-3.831a24.261,24.261,0,0,0-3.247-11.213c-.047-.07-.116-.164-.163-.234-6.05-9.3-20.09-9.647-29.9-7.732a21.968,21.968,0,0,0-9.974,4.742,25.947,25.947,0,0,0-6.1,7.849,56.063,56.063,0,0,0-3.6,9.156,188.749,188.749,0,0,0-4.812,18.595q-2.8,13.244-5.419,26.536c-1.986,10.115-3.761,20.276-5.209,30.484-1.308,9.18-2.523,18.384-3.528,27.611-1.285,1.191-2.593,2.359-3.9,3.527a179.242,179.242,0,0,1-19.411,14.927,123.5,123.5,0,0,1-20.44,11.1,45.172,45.172,0,0,1-17.286,3.924,14.081,14.081,0,0,1-2.967-.327,4.866,4.866,0,0,1-.7-.351,121.9,121.9,0,0,0,16.515-9.273,119.652,119.652,0,0,0,24.925-22.121,125.871,125.871,0,0,0,18.313-29.573c4.7-10.395,8.129-21.7,8.129-33.2a74.318,74.318,0,0,0-4.228-25.46,59.724,59.724,0,0,0-12.147-20.346,55.563,55.563,0,0,0-18.547-13.317,56.327,56.327,0,0,0-22.962-4.786,58.879,58.879,0,0,0-27.237,6.353,75.53,75.53,0,0,0-20.954,16.049,103.557,103.557,0,0,0-15.581,22.235,157.329,157.329,0,0,0-10.6,25.441c-3.06,9.578-5.536,19.342-7.779,29.129-1.215,5.232-2.219,10.535-2.92,15.861a106.153,106.153,0,0,0-1.005,14.156v1.962c-1.191,2.149-2.429,4.3-3.667,6.447-3.644,6.237-7.451,12.4-11.516,18.36q-3.468,5.151-7.241,10.068c4.134-33.847,9.787-67.7,10.582-101.613.116-4.321.163-8.62.116-12.944-.093-9.856-.42-15.111-4.321-24.432-.164-.35-.327-.7-.514-1.051-4.391-8.176-12.357-11.937-21.4-11.937h-.35l-7.475.21a20.625,20.625,0,0,1-2.383-.117c-.094-.023-.233-.049-.35-.07a8.188,8.188,0,0,1-1-1.4c-.63-1.052-1.284-2.1-1.985-3.109-5.4-7.8-13.852-11.3-23.149-11.3-19.949,0-36.862,12.428-49.942,26.4a141.084,141.084,0,0,0-26.07,40.061c-3.527,8.106-6.611,16.422-9.46,24.808-.677,1.939-1.308,3.877-1.939,5.816-.42.21-.817.42-1.238.607a24.816,24.816,0,0,1-10.442,2.92,2.289,2.289,0,0,1-.187-.3,13.269,13.269,0,0,1-1.4-3.88.8.8,0,0,1-.047-.255,39.542,39.542,0,0,1-.888-9.39,73.431,73.431,0,0,1,.795-9.344c.7-5.373,1.682-10.7,2.686-16.024,1.051-5.676,2.056-11.376,2.827-17.1.257-2.058.514-4.088.7-6.146.164-1.752.28-3.525.28-5.3a35.465,35.465,0,0,0-2.1-12.38c-.023-.093-.07-.164-.093-.257a32.358,32.358,0,0,0-6.027-9.834,4.5,4.5,0,0,0-.327-.35,29.574,29.574,0,0,0-9.274-6.4,27.864,27.864,0,0,0-11.236-2.359,37.542,37.542,0,0,0-24.574,8.9,75.874,75.874,0,0,0-13.455,14.833c-.047-1.285-.116-2.569-.21-3.831a24.266,24.266,0,0,0-3.247-11.213,1.463,1.463,0,0,0-.163-.234,17.59,17.59,0,0,0-11.306-7.685,32.264,32.264,0,0,0-4.719-.631c-1.612-.117-3.247-.14-4.859-.14a46.813,46.813,0,0,0-9.017.724,21.773,21.773,0,0,0-9.951,4.742,25.235,25.235,0,0,0-6.1,7.849,56.112,56.112,0,0,0-3.621,9.156c-1.939,6.1-3.481,12.334-4.812,18.595-1.845,8.83-3.691,17.683-5.42,26.536q-2.978,15.172-5.209,30.484c-1.308,9.25-2.523,18.524-3.527,27.821-.444,4.018-.841,8.012-1.214,12.03-2.92,2.57-5.91,5.022-8.994,7.405-3.715,2.873-7.616,5.536-11.609,8.036a64.523,64.523,0,0,1-9.788,5.185c-.07.047-.163.07-.234.117a.085.085,0,0,0-.07.023c-1.659-12.637,1.915-29.97,3.761-41.86q2.067-13.385,4.158-26.723c3.5-22.355,6.727-43.238,6.727-65.967a23.526,23.526,0,0,0-9.881-19.272c-6-4.508-13.338-6.167-20.743-6.167a38.02,38.02,0,0,0-19.552,5.14c-6.471,3.807-11.329,9.507-12.567,17.076L710.015,578.856a54.715,54.715,0,0,1-3.387,12.474,30.239,30.239,0,0,1-4.485,7.826,5.056,5.056,0,0,0-.631.771,22.587,22.587,0,0,1-3.2,3.317c-.093-.42-.187-.841-.257-1.262-1.005-5.723.934-17.753,1.868-23.616,1.4-8.947,3.294-17.823,4.649-26.747q2.172-14.436,4.368-28.872,1.962-12.789,3.925-25.579c1.425-9.367,2.546-18.783,3.55-28.218a11.343,11.343,0,0,0,.07-1.261,21.968,21.968,0,0,0-8.433-17.449c-5.606-4.532-12.964-6.074-20-6.494a9.788,9.788,0,0,0-1.168,0,29.66,29.66,0,0,0-16.655,5.885,2.359,2.359,0,0,0-.234.189,45.17,45.17,0,0,0-10.442,11.63c-5.583,8.856-9.2,22.192-11.68,32.355-3.551,14.437-6.167,29.223-8.456,43.893-.21,1.449-.444,2.873-.654,4.3-.117-.42-.234-.864-.35-1.285a91.122,91.122,0,0,0-15.067-31.278A76.584,76.584,0,0,0,609.92,495.79c1.167-.444,2.312-.888,3.457-1.378,13.2-5.537,25.6-13.082,35.694-23.313a92,92,0,0,0,20.976-32.47,102.149,102.149,0,0,0,6.564-35.857,65.792,65.792,0,0,0-8.129-31.512,98.887,98.887,0,0,0-20.953-26.21,157.883,157.883,0,0,0-29.76-21.093,222.511,222.511,0,0,0-36.044-15.791,259.958,259.958,0,0,0-39.9-10.091,246.543,246.543,0,0,0-41.439-3.574,213.886,213.886,0,0,0-34.759,2.848,160.918,160.918,0,0,0-32.773,9.043A132.662,132.662,0,0,0,403.82,322.37a103.753,103.753,0,0,0-23.546,24.177,111.975,111.975,0,0,0-15.3,32.072c-3.925,12.918-5.373,26.466-5.373,39.945a90.874,90.874,0,0,0,.421,9.437,49.269,49.269,0,0,0,1.518,8.246c2.1,7.241,6.563,13.688,14.46,15.067,8.175,1.425,15.324-3.551,20.72-9.064a69.62,69.62,0,0,0,6.75-8.059,151.106,151.106,0,0,0,10.278-16.609c14.249-26.022,14.833-33.777,44.477-43.355a152.1,152.1,0,0,1,27.541-6.027c.094,0,.163-.023.234-.023,4.251-.631,8.573-.958,12.848-1.168,6-.326,12.007-.42,18.01-.42a224.756,224.756,0,0,1,24.411,1.282,172.438,172.438,0,0,1,22.612,3.9,125.29,125.29,0,0,1,19.388,6.307,66.883,66.883,0,0,1,14.3,8.2,30.035,30.035,0,0,1,8.106,8.876,18.016,18.016,0,0,1,2.359,9.25,44.578,44.578,0,0,1-3.971,18.8A46.681,46.681,0,0,1,592.4,438.583c-22.986,20.206-44.009,13.618-71.807,13.618a39.747,39.747,0,0,0-12.521,1.683,22.386,22.386,0,0,0-10.3,6.8c-.14.164-.257.327-.374.491a23.136,23.136,0,0,0-4.391,11,67.318,67.318,0,0,0-.538,9.2c0,7.685,1.5,15.3,5.793,21.795a45.137,45.137,0,0,0,13.549,13.221,74.065,74.065,0,0,0,16.8,7.732c5.373,1.729,10.769,3.434,16.165,5.162,5.115,1.656,10.184,3.527,15.137,5.6a37.241,37.241,0,0,1,10.675,6.636,30.272,30.272,0,0,1,7.078,9.788c2.126,4.508,2.64,10.371,2.64,15.3,0,10.722-1.121,22.892-5.489,32.773a56.76,56.76,0,0,1-14.226,20,55.489,55.489,0,0,1-20.37,11.353,83.727,83.727,0,0,1-25.088,3.761,91.387,91.387,0,0,1-21.49-2.616,165.419,165.419,0,0,1-16.608-4.976c-.117-.654-.234-1.308-.327-1.962a30.943,30.943,0,0,1-.3-4.415v-4.672q0-10.865.233-21.724c.187-7.592.491-15.184.841-22.776.35-7.851.7-15.721,1.121-23.57.351-7.218.865-14.436,1.449-21.631q1.437-17.625,3.668-35.179c.7-5.443,1.495-10.909,2.43-16.328.747-4.392,1.611-8.783,2.616-13.128A268.021,268.021,0,0,1,497,434.332a139.615,139.615,0,0,1,12.591-26.724,12.069,12.069,0,0,0,.514-11.7c-6.4-12.822-16.632-23.707-32-23.707-23.546,0-37.165,19.014-45.341,38.753-4.3,10.372-7.147,20.93-10.231,31.652-2.826,9.811-5.139,19.762-7.1,29.783-2.219,11.376-3.994,22.822-5.419,34.315-3.06,24.364-5.022,48.845-6.027,73.372q-1.437,35.915-1.472,71.877c0,7.522,2.383,14.763,8.713,19.318,8.059,5.91,25.438,11,35.32,14.063q12.894,3.994,26.045,6.914,13.071,2.873,26.327,4.553a198.756,198.756,0,0,0,25.3,1.731,124.861,124.861,0,0,0,36.3-5.115,112.475,112.475,0,0,0,30.04-14.062,108.775,108.775,0,0,0,23.313-21.071A125.977,125.977,0,0,0,630.2,632.91c.421-.888.864-1.8,1.261-2.71a83.584,83.584,0,0,0,2.009,11.561A53.262,53.262,0,0,0,641.5,660a34.324,34.324,0,0,0,13.735,11.635,37.649,37.649,0,0,0,15.651,3.341,46.91,46.91,0,0,0,19.389-4.464,80.447,80.447,0,0,0,17.262-10.883,121.469,121.469,0,0,0,14.53-14.04,61.446,61.446,0,0,0,4.648,9.484,38.854,38.854,0,0,0,11.493,12.31,1.543,1.543,0,0,0,.234.163A32.334,32.334,0,0,0,756.1,672.5a60.948,60.948,0,0,0,17.146-2.593,125.53,125.53,0,0,0,16.958-6.354,173.2,173.2,0,0,0,16.7-8.9c1.122-.677,2.243-1.378,3.34-2.079.117.278.21.561.3.841a35.437,35.437,0,0,0,10.232,14.716c5.442,4.577,12.17,6.424,19.2,6.424a24.026,24.026,0,0,0,11.353-2.734,25.793,25.793,0,0,0,9.11-8.409c.047-.049.093-.117.14-.164a60.34,60.34,0,0,0,5.583-10.769c.911-2.2,1.729-4.439,2.476-6.681.888-2.593,1.7-5.211,2.5-7.848l18.524-61.6c1,2.875,2.149,5.725,3.41,8.505a56.506,56.506,0,0,0,16.165,20.976c8.2,6.447,18.244,8.877,28.522,8.877a51.077,51.077,0,0,0,5.98-.351,83.257,83.257,0,0,0,5.116,19.015,73.352,73.352,0,0,0,20.463,28.942c9.344,8.012,20.346,12.661,32.75,12.661a43.862,43.862,0,0,0,10.839-1.355c-1.588,1.892-3.153,3.784-4.7,5.7-6.938,8.711-13.688,17.613-20.346,26.583a186.993,186.993,0,0,0-12.334,18.874c-1.705,3.014-3.387,6.027-5.022,9.064-1.215,2.312-2.406,4.625-3.527,6.984-1.168,2.476-2.359,4.929-3.551,7.405-1.869,3.9-3.738,7.778-5.583,11.679-7.709,16.3-12.451,34.058-11.213,52.208a72.423,72.423,0,0,0,5.77,24.364c11.656,26.233,41.556,35.133,67.882,27.912a63.024,63.024,0,0,0,28.031-16.046,84.339,84.339,0,0,0,13.922-18.875,135.719,135.719,0,0,0,9.437-21.234,200.089,200.089,0,0,0,6.167-22.425,203.687,203.687,0,0,0,3.714-21.867q.981-9.282,1.962-18.615c.4-3.924.841-7.849,1.285-11.773.023-.164.023-.3.047-.467.56-7.382,1.168-14.786,1.939-22.168.257-2.57.56-5.162.887-7.732.233-1.8.491-3.574.817-5.349.234-1.331,1.1-5.21,2.126-6.237,8.409-6.8,17.216-13.268,25.415-20.3a201.784,201.784,0,0,0,23.033-23.827,73.336,73.336,0,0,0,20.743,18.267c24.878,14.623,55.6,9.367,80.193-3.013a153.052,153.052,0,0,0,18.828-11.376c.233.678.467,1.378.724,2.056a35.6,35.6,0,0,0,10.208,14.716c5.466,4.577,12.194,6.424,19.2,6.424a24.116,24.116,0,0,0,11.375-2.734,25.986,25.986,0,0,0,9.11-8.409c.047-.049.07-.117.117-.164a62.066,62.066,0,0,0,5.606-10.769c.911-2.2,1.705-4.439,2.476-6.681.888-2.593,1.706-5.211,2.5-7.848l18.524-61.6c1,2.875,2.125,5.725,3.41,8.505a56.264,56.264,0,0,0,16.165,20.976c8.2,6.447,18.22,8.877,28.522,8.877a52.974,52.974,0,0,0,18.454-3.364,99.479,99.479,0,0,0,15.487-7.264,137.907,137.907,0,0,0,13.408-8.947q5.186-3.925,10.325-7.919a11.938,11.938,0,0,0,4.672-8.876l2.616-48.471A12.09,12.09,0,0,0,1444.669,518.239Zm-239.084-1.168c-1.168,9.344-8.456,18.431-15.16,24.574a46.99,46.99,0,0,1-5.747,4.578c2.289-10.442,6.214-23.382,12.684-31.605.934-1.194,4.906-5.536,6.8-5.281C1205.819,510.273,1205.772,515.576,1205.585,517.071ZM1013.2,609.13a36,36,0,0,1-2.873-12.427c-1.1-13.618,5.373-35.9,10.231-48.541,2.78-7.218,9.017-21.234,16.772-30.694-.116.864-.233,1.729-.35,2.57-1.729,12.567-3.6,25.111-5.957,37.585-2.336,12.448-5.163,25.625-9.484,37.539-1,2.8-4.7,11.983-7.779,15.064A9.67,9.67,0,0,1,1013.2,609.13Zm14.343,127.426c-.07.42-1.589,7.312-1.635,7.755-.3,1.845-.794,5.91-1.075,7.779-2.1,13.032-9.577,47.28-17.636,50.714h-.024a5.868,5.868,0,0,1-3.06.514c-.7-.07-1.729-.187-1.915-1.1-1.261-6.167,5.115-25.065,7.5-30.367,1.892-4.251,8.036-18.22,10.325-22.054C1021.49,747.3,1025.741,738.635,1027.54,736.556Z" transform="translate(-359.6 -294.502)" fill="#d21113" fill-rule="evenodd"/>
        <path id="Path_29" data-name="Path 29" d="M622.972,596.1a118.081,118.081,0,0,1-8.923,25.766,113.776,113.776,0,0,1-14.9,23.149,97.634,97.634,0,0,1-20.977,18.968,102.033,102.033,0,0,1-27.144,12.661,113.19,113.19,0,0,1-33.077,4.649,190.465,190.465,0,0,1-23.92-1.635q-12.754-1.646-25.345-4.415-12.719-2.8-25.158-6.681c-7.5-2.312-26.046-7.968-32.119-12.45-3.364-2.385-4.205-6.588-4.205-10.442q0-35.74,1.472-71.433,1.472-36.336,5.934-72.461c1.425-11.236,3.153-22.448,5.326-33.568,1.892-9.694,4.135-19.341,6.868-28.849,6.143-21.374,15.955-62.486,45.037-62.486,10.839,0,17.73,8.736,22.191,17.66a1.053,1.053,0,0,1-.047,1.051,153.053,153.053,0,0,0-13.6,28.8,278.485,278.485,0,0,0-8.549,28.335c-1.075,4.555-1.986,9.18-2.78,13.805-.958,5.56-1.752,11.166-2.476,16.772-1.542,11.867-2.756,23.757-3.737,35.693-.584,7.311-1.1,14.623-1.471,21.957-.421,7.873-.771,15.745-1.122,23.617q-.561,11.528-.84,23.056c-.164,7.311-.234,14.646-.234,21.958v4.672a45.7,45.7,0,0,0,.4,5.933c.28,1.939.677,3.877,1.1,5.746a7.256,7.256,0,0,0,1.682,3.224,167.82,167.82,0,0,0,22.425,7.1,102.062,102.062,0,0,0,24.084,2.943,94.711,94.711,0,0,0,28.358-4.275,66.1,66.1,0,0,0,24.317-13.571,67.436,67.436,0,0,0,17.029-23.8c5.022-11.376,6.424-24.9,6.424-37.212,0-6.657-.818-13.876-3.668-19.972a41.413,41.413,0,0,0-9.694-13.291,49.209,49.209,0,0,0-13.759-8.6q-7.884-3.294-16.025-5.91c-5.373-1.705-10.745-3.41-16.118-5.163a61.827,61.827,0,0,1-14.3-6.541,33.945,33.945,0,0,1-10.278-10.021c-3.061-4.625-3.995-10.278-3.995-15.744a56.64,56.64,0,0,1,.444-7.709,12.484,12.484,0,0,1,2.266-5.886c.023-.023.023-.049.047-.049A11.5,11.5,0,0,1,505.264,458a30.333,30.333,0,0,1,9.064-1.122c29.6,0,52.628,6.891,79.048-16.352a56.832,56.832,0,0,0,14.366-19.014,55.236,55.236,0,0,0,5-23.383,29.119,29.119,0,0,0-3.83-14.74,41.249,41.249,0,0,0-10.979-12.123,78,78,0,0,0-16.655-9.554,135.7,135.7,0,0,0-21.047-6.867,185.972,185.972,0,0,0-24.037-4.158,240.411,240.411,0,0,0-25.6-1.331c-6.19,0-12.4.094-18.571.421-4.625.234-9.3.607-13.876,1.261h-.023a164.116,164.116,0,0,0-29.549,6.468c-33.171,10.725-35.25,20.3-50.714,48.544a143.566,143.566,0,0,1-9.531,15.441c-5.162,7.1-17.823,21.677-22.518,5.443a39.017,39.017,0,0,1-1.145-6.356,82.153,82.153,0,0,1-.373-8.29c0-12.381,1.308-24.878,4.905-36.745a101.366,101.366,0,0,1,13.782-28.966,92.591,92.591,0,0,1,21.047-21.634,119.778,119.778,0,0,1,26.63-14.62,148.464,148.464,0,0,1,30.508-8.433,202.161,202.161,0,0,1,32.96-2.687,234.553,234.553,0,0,1,39.594,3.409,247.7,247.7,0,0,1,38.216,9.673,210.623,210.623,0,0,1,34.245,14.994,145.024,145.024,0,0,1,27.7,19.6,87.318,87.318,0,0,1,18.664,23.289,54.742,54.742,0,0,1,6.844,26.326A91.487,91.487,0,0,1,653.5,428.52,80.858,80.858,0,0,1,635,457.135c-9.064,9.18-20.276,15.931-32.119,20.884a115.681,115.681,0,0,1-32.516,7.942,58.4,58.4,0,0,1,16.188,5.49,65.152,65.152,0,0,1,21.818,18.36,80.363,80.363,0,0,1,13.221,27.541,120.179,120.179,0,0,1,1.378,58.749Z" transform="translate(-353.334 -288.223)" fill="#fff" fill-rule="evenodd"/>
        <path id="Path_30" data-name="Path 30" d="M1278.755,436.618a1.029,1.029,0,0,0-1.215.21,153.714,153.714,0,0,1-15.838,13.549,103.127,103.127,0,0,1-15.137,9.249,35.328,35.328,0,0,1-15.675,4.043,10.343,10.343,0,0,1-4.789-1.145.023.023,0,0,1-.023-.023,9.963,9.963,0,0,1-4.041-3.831c-.023-.024-.023-.024-.023-.047a22.227,22.227,0,0,1-3.037-7.617l-.023-.021a51.3,51.3,0,0,1-1.192-12.1,87.558,87.558,0,0,1,.865-10.769c.723-5.537,1.751-11.121,2.779-16.632,1.029-5.466,2.009-11,2.734-16.541.256-1.892.49-3.782.677-5.674.117-1.425.234-2.873.234-4.3a24.413,24.413,0,0,0-1.448-8.573v-.023a20.813,20.813,0,0,0-3.948-6.494c0-.023-.023-.023-.023-.049a18.527,18.527,0,0,0-5.864-4.039,16.788,16.788,0,0,0-6.821-1.448A26.63,26.63,0,0,0,1189.4,370.7a66.639,66.639,0,0,0-13.268,15.324,126.663,126.663,0,0,0-11.048,22.612c-2.71,7.032-5.467,14.062-8.363,21.024h-.117c-.21-7.825.093-15.744.585-23.546.233-4.135.467-8.292.606-12.476.117-3.081.211-6.188.211-9.295,0-3.413,0-6.891-.234-10.278a14.382,14.382,0,0,0-1.635-6.213l-.023-.023c-3.037-4.648-13.992-3.855-18.617-2.967a11.009,11.009,0,0,0-5,2.359,15.081,15.081,0,0,0-3.458,4.579,46.709,46.709,0,0,0-2.873,7.4,179.749,179.749,0,0,0-4.532,17.494c-1.845,8.809-3.667,17.592-5.4,26.422-1.939,9.9-3.668,19.879-5.092,29.9-1.308,9.133-2.5,18.288-3.5,27.494-.14,1.238-.28,2.5-.4,3.761-2.336,2.242-4.719,4.438-7.125,6.564a199.2,199.2,0,0,1-20.579,15.837,133.8,133.8,0,0,1-22.262,12.054,55.92,55.92,0,0,1-21.561,4.789,24.223,24.223,0,0,1-5.933-.724,16.459,16.459,0,0,1-5.14-2.709,24.694,24.694,0,0,1-4.929-5.422,61.84,61.84,0,0,1-4.508-7.846,113.711,113.711,0,0,0,27.283-13.338,107.582,107.582,0,0,0,22.612-20.066,114.508,114.508,0,0,0,16.7-27c4.042-8.923,7.148-18.8,7.148-28.688A63.622,63.622,0,0,0,1085.407,396a49.141,49.141,0,0,0-9.881-16.655,45.07,45.07,0,0,0-33.474-14.576,47.943,47.943,0,0,0-22.237,5.162,64.633,64.633,0,0,0-17.918,13.736,92.091,92.091,0,0,0-13.922,19.9,148.905,148.905,0,0,0-9.857,23.665c-2.943,9.274-5.373,18.758-7.545,28.242-1.122,4.906-2.079,9.858-2.733,14.857a96.272,96.272,0,0,0-.911,12.707q0,2.347.071,4.7c-1.705,3.084-3.458,6.166-5.234,9.227-3.761,6.469-7.708,12.825-11.89,19.015-3.528,5.162-7.219,10.229-11.213,15.041a106.179,106.179,0,0,1-10.488,11.051c-2.78,2.5-5.677,4.976-8.714,7.219,3.41-42.911,12.754-90.354,13.712-131.279.093-4.182.164-8.386.117-12.568-.093-8.739-.117-12.264-3.48-20.323-.024-.023-.024-.047-.047-.1-2.453-4.529-6.775-6.165-11.751-6.165h-.023l-7.661.21a35.846,35.846,0,0,1-3.855-.187c-4.579-.561-7.241-3.014-9.46-6.775-.491-.84-1-1.658-1.565-2.476-3.317-4.765-8.456-6.541-14.133-6.541-16.632,0-31.092,11.329-41.931,22.915a129.236,129.236,0,0,0-24.013,36.955c-3.434,7.826-6.4,15.861-9.157,23.943q-1.647,4.906-3.224,9.808c-1.775,1.03-3.6,1.988-5.42,2.921a35.5,35.5,0,0,1-15.7,4.043,10.344,10.344,0,0,1-4.789-1.145l-.023-.023a10.12,10.12,0,0,1-4.042-3.831c0-.024-.023-.024-.023-.047A22.738,22.738,0,0,1,769.962,451v-.021a50.124,50.124,0,0,1-1.215-12.1,83.425,83.425,0,0,1,.887-10.769c.7-5.537,1.729-11.121,2.757-16.632,1.028-5.466,2.009-11,2.757-16.541.233-1.892.467-3.782.654-5.674.14-1.425.233-2.873.233-4.3a24.934,24.934,0,0,0-1.425-8.573.023.023,0,0,0-.024-.023,21.188,21.188,0,0,0-3.924-6.494l-.047-.049a18.694,18.694,0,0,0-5.84-4.039,16.9,16.9,0,0,0-6.844-1.448,26.631,26.631,0,0,0-17.543,6.354,65.958,65.958,0,0,0-13.245,15.324,126.765,126.765,0,0,0-11.073,22.612c-2.709,7.032-5.466,14.062-8.363,21.024h-.093c-.234-7.825.093-15.744.561-23.546q.386-6.2.63-12.476c.117-3.081.188-6.188.188-9.295,0-3.413.023-6.891-.234-10.278a14.038,14.038,0,0,0-1.635-6.213.023.023,0,0,0-.023-.023,6.685,6.685,0,0,0-4.415-2.944,20.749,20.749,0,0,0-3.177-.42c-1.354-.094-2.732-.117-4.111-.117a37.95,37.95,0,0,0-6.914.514,11.127,11.127,0,0,0-5,2.359,15.476,15.476,0,0,0-3.457,4.579,46.543,46.543,0,0,0-2.849,7.4,179.591,179.591,0,0,0-4.532,17.494c-1.869,8.809-3.668,17.592-5.4,26.422-1.962,9.9-3.691,19.879-5.116,29.9-1.308,9.133-2.5,18.314-3.5,27.494q-.876,7.989-1.565,16.024c-.21.21-.42.42-.631.605-3.9,3.623-7.989,7.033-12.194,10.28-4.017,3.084-8.2,5.931-12.473,8.643a74.175,74.175,0,0,1-11.516,6.048s0,.026-.023.026a23.746,23.746,0,0,1-8.807,2.242,4.653,4.653,0,0,1-3.714-1.565,13.124,13.124,0,0,1-2.033-5.187v-.049c-3.269-14.691.865-34.686,3.107-49.029,1.379-8.925,2.734-17.823,4.135-26.747,3.527-22.588,6.587-41.043,6.587-64.262a12.577,12.577,0,0,0-5.466-10.488c-4.041-3.037-9.227-3.971-14.179-3.971a27.289,27.289,0,0,0-14.016,3.621c-3.6,2.1-6.61,5.139-7.264,9.391L559.423,489.059a65.289,65.289,0,0,1-4.134,14.974,40.439,40.439,0,0,1-6.33,10.745c-.023.023-.047.047-.047.07-5.116,6.844-16.211,14.74-21.3,3.55a31.3,31.3,0,0,1-1.752-6.143c-2.079-11.82,4.742-42.563,6.471-53.89q2.172-14.436,4.368-28.872,1.963-12.789,3.924-25.6c1.4-9.2,2.5-18.455,3.5-27.7v-.117a11.053,11.053,0,0,0-4.368-8.923c-3.645-2.943-9.2-3.808-13.735-4.065h-.094a18.644,18.644,0,0,0-10.581,3.738c0,.023,0,.023-.023.023a34.44,34.44,0,0,0-7.9,8.853c-15.815,24.995-26.933,132.1-27,149.617a90.373,90.373,0,0,0,2.266,22.145,43.333,43.333,0,0,0,6.283,14.529,23.915,23.915,0,0,0,9.391,8.06,26.784,26.784,0,0,0,11.119,2.359,36.442,36.442,0,0,0,14.857-3.48,69.683,69.683,0,0,0,14.88-9.414,113.685,113.685,0,0,0,14.366-14.085,177.282,177.282,0,0,0,11.843-15.487,146.679,146.679,0,0,0,3.527,14.46,59.652,59.652,0,0,0,5.723,13.409,28.4,28.4,0,0,0,8.269,8.9h.024A21.419,21.419,0,0,0,594.7,569.93a50.193,50.193,0,0,0,14.063-2.173,112.392,112.392,0,0,0,15.44-5.77,159.419,159.419,0,0,0,15.651-8.342c5.022-3.034,9.928-6.3,14.67-9.832.514-.4,1.052-.794,1.589-1.191.024.35.047.724.093,1.075a56.918,56.918,0,0,0,3.2,14.2,24.488,24.488,0,0,0,7.031,10.231c3.433,2.873,7.732,3.854,12.147,3.854a13.268,13.268,0,0,0,6.26-1.472,15.512,15.512,0,0,0,5.233-5c0-.024,0-.024.023-.024a50.072,50.072,0,0,0,4.532-8.83c.817-1.962,1.565-3.994,2.242-6,.841-2.476,1.612-4.975,2.359-7.475L730.11,440.542h.935q1.4,12.474,3.574,24.854a94.019,94.019,0,0,0,7.032,23.243A45.429,45.429,0,0,0,754.638,505.6c6.214,4.905,13.969,6.54,21.725,6.54a42.021,42.021,0,0,0,14.669-2.686c.4-.163.818-.3,1.239-.467a77.967,77.967,0,0,0,5.349,28.709,62.62,62.62,0,0,0,17.45,24.692c7.358,6.307,15.838,10.021,25.6,10.021,14.273,0,26.793-9.648,36.277-19.738L874,573.5c-6.47,6.73-12.777,13.713-18.617,21.049-6.867,8.619-13.525,17.426-20.112,26.253a182.03,182.03,0,0,0-11.633,17.8c-1.659,2.9-3.271,5.816-4.859,8.783-1.122,2.149-2.242,4.3-3.294,6.517-1.168,2.476-2.383,4.975-3.574,7.451-1.846,3.878-3.714,7.756-5.56,11.633-6.891,14.576-11.283,30.507-10.161,46.742a61.16,61.16,0,0,0,4.835,20.673c13.315,29.97,56.6,30.3,78.114,8.6a74.6,74.6,0,0,0,12.1-16.422,123.316,123.316,0,0,0,8.667-19.507,194.313,194.313,0,0,0,5.839-21.185,199.458,199.458,0,0,0,3.5-20.722c.677-6.188,1.308-12.4,1.962-18.592.42-3.971.841-7.919,1.308-11.89v-.025c.585-7.5,1.191-14.995,1.963-22.47.28-2.686.584-5.372.934-8.036.258-1.962.538-3.95.888-5.886.794-4.392,2.383-9.881,6-12.8,22.495-18.15,28.989-21.094,47.933-43.8,2.9-3.481,5.7-7.078,8.293-10.818a86.788,86.788,0,0,0,4.811,8.175,63.564,63.564,0,0,0,20.627,19.671c21.491,12.614,48.587,7.265,69.681-3.364a138.83,138.83,0,0,0,18.174-11.072c4.461-3.2,8.829-6.543,13.057-10.047.093,1.146.211,2.314.327,3.483a55.9,55.9,0,0,0,3.2,14.2,24.439,24.439,0,0,0,7.008,10.231c3.434,2.873,7.754,3.854,12.146,3.854a13.2,13.2,0,0,0,6.26-1.472,15.572,15.572,0,0,0,5.256-5v-.024a48.642,48.642,0,0,0,4.556-8.83c.817-1.962,1.541-3.994,2.242-6,.842-2.476,1.612-4.975,2.359-7.475l30.882-102.641h.934c.911,8.316,2.125,16.609,3.574,24.854a94.98,94.98,0,0,0,7.008,23.243,45.249,45.249,0,0,0,13.012,16.959c6.213,4.905,13.946,6.54,21.723,6.54a41.808,41.808,0,0,0,14.647-2.686A90.043,90.043,0,0,0,1253.783,503a124.454,124.454,0,0,0,12.31-8.222q5.151-3.89,10.255-7.849a1.081,1.081,0,0,0,.445-.817l2.592-48.448A1.052,1.052,0,0,0,1278.755,436.618ZM845.787,711.184h-.024a5.859,5.859,0,0,1-3.06.514c-.7-.07-1.728-.187-1.915-1.1-1.261-6.166,5.115-25.064,7.5-30.367,1.892-4.251,8.036-18.22,10.325-22.053,1.471-2.5,5.723-11.164,7.521-13.243-.069.421-1.588,7.311-1.635,7.756-.3,1.845-.8,5.91-1.075,7.779C861.321,673.5,853.846,707.751,845.787,711.184Zm3.129-206.1c-1.1-13.619,5.373-35.9,10.231-48.541,2.779-7.218,9.017-21.234,16.772-30.694-.117.864-.234,1.728-.35,2.569-1.728,12.567-3.6,25.111-5.957,37.586-2.337,12.448-5.163,25.625-9.485,37.538-1,2.8-4.695,11.984-7.778,15.065a9.762,9.762,0,0,1-.561-1.1A36.027,36.027,0,0,1,848.917,505.084Zm193.837-87.367c1.658.937,1.611,6.239,1.424,7.735-1.168,9.343-8.456,18.43-15.16,24.574a47.048,47.048,0,0,1-5.746,4.579c2.289-10.442,6.213-23.383,12.684-31.606C1036.89,421.805,1040.861,417.463,1042.754,417.718Z" transform="translate(-198.193 -202.883)" fill="#fff" fill-rule="evenodd"/>
      </g>
      <g id="Group_21" data-name="Group 21" transform="translate(812.535 203.871)">
        <path id="Path_31" data-name="Path 31" d="M708.772,429.651a49.814,49.814,0,0,0-.981,6.961c-.164,3.177-.3,6.377-.352,9.554a30.958,30.958,0,0,0,12.171-3.6,59.09,59.09,0,0,0,13.548-9.46C780.369,389.681,726.081,345.067,708.772,429.651Zm32.12-29.176c-1.169,9.344-8.457,18.43-15.161,24.574a47.07,47.07,0,0,1-5.747,4.579c2.289-10.442,6.213-23.383,12.684-31.605.934-1.194,4.9-5.537,6.8-5.281C741.125,393.678,741.078,398.98,740.892,400.475Z" transform="translate(-707.44 -381.778)" fill="#d21113" fill-rule="evenodd"/>
      </g>
      <g id="Group_22" data-name="Group 22" transform="translate(639.66 202.316)">
        <path id="Path_32" data-name="Path 32" d="M683.181,381.367c-29.97,4.768-51.648,74.986-49.616,100.494a46.948,46.948,0,0,0,3.9,16.282c1.985,4.158,5,8.083,9.974,8.083,25.322,0,34.432-105.772,38.1-125.113C684.746,381.159,683.951,381.252,683.181,381.367Zm-12.03,22.965c-1.73,12.567-3.6,25.111-5.957,37.585-2.336,12.448-5.162,25.625-9.484,37.539-1.005,2.8-4.7,11.983-7.778,15.065a9.769,9.769,0,0,1-.561-1.1A36.036,36.036,0,0,1,644.5,481c-1.1-13.618,5.373-35.9,10.232-48.541,2.779-7.218,9.016-21.234,16.772-30.694C671.383,402.626,671.267,403.491,671.151,404.332Z" transform="translate(-633.433 -381.112)" fill="#d21113" fill-rule="evenodd"/>
      </g>
      <path id="Path_33" data-name="Path 33" d="M663.137,487.345a156.016,156.016,0,0,0-11.843,19.6c-4.368,8.456-27.143,55.383-18.454,63.047a6.832,6.832,0,0,0,4.626,1.425,18.469,18.469,0,0,0,6.938-1.192h.047c17.847-6.353,25.344-63.444,27.494-83.7.28-2.873.584-5.747.864-8.62.047-.677.118-1.331.188-1.986A79.017,79.017,0,0,0,663.137,487.345Zm.351,14.6c-.3,1.845-.794,5.91-1.075,7.779-2.1,13.032-9.578,47.279-17.637,50.713h-.022a5.871,5.871,0,0,1-3.061.514c-.7-.07-1.728-.187-1.915-1.1-1.26-6.167,5.116-25.065,7.5-30.367,1.892-4.251,8.036-18.22,10.325-22.054,1.472-2.5,5.722-11.163,7.522-13.243C665.053,494.61,663.535,501.5,663.488,501.945Z" transform="translate(2.817 -52.135)" fill="#d21113" fill-rule="evenodd"/>
      <path id="Path_34" data-name="Path 34" d="M663.137,487.345a156.016,156.016,0,0,0-11.843,19.6c-4.368,8.456-27.143,55.383-18.454,63.047a6.832,6.832,0,0,0,4.626,1.425,18.469,18.469,0,0,0,6.938-1.192h.047c17.847-6.353,25.344-63.444,27.494-83.7.28-2.873.584-5.747.864-8.62.047-.677.118-1.331.188-1.986A79.017,79.017,0,0,0,663.137,487.345Zm.351,14.6c-.3,1.845-.794,5.91-1.075,7.779-2.1,13.032-9.578,47.279-17.637,50.713h-.022a5.871,5.871,0,0,1-3.061.514c-.7-.07-1.728-.187-1.915-1.1-1.26-6.167,5.116-25.065,7.5-30.367,1.892-4.251,8.036-18.22,10.325-22.054,1.472-2.5,5.722-11.163,7.522-13.243C665.053,494.61,663.535,501.5,663.488,501.945Z" transform="translate(2.817 -52.135)" fill="#d21113" fill-rule="evenodd"/>
      <g id="Group_23" data-name="Group 23" transform="translate(639.66 202.316)">
        <path id="Path_35" data-name="Path 35" d="M683.181,381.367c-29.97,4.768-51.648,74.986-49.616,100.494a46.948,46.948,0,0,0,3.9,16.282c1.985,4.158,5,8.083,9.974,8.083,25.322,0,34.432-105.772,38.1-125.113C684.746,381.159,683.951,381.252,683.181,381.367Zm-12.03,22.965c-1.73,12.567-3.6,25.111-5.957,37.585-2.336,12.448-5.162,25.625-9.484,37.539-1.005,2.8-4.7,11.983-7.778,15.065a9.769,9.769,0,0,1-.561-1.1A36.036,36.036,0,0,1,644.5,481c-1.1-13.618,5.373-35.9,10.232-48.541,2.779-7.218,9.016-21.234,16.772-30.694C671.383,402.626,671.267,403.491,671.151,404.332Z" transform="translate(-633.433 -381.112)" fill="#d21113" fill-rule="evenodd"/>
      </g>
      <g id="Group_24" data-name="Group 24" transform="translate(812.535 203.871)">
        <path id="Path_36" data-name="Path 36" d="M708.772,429.651a49.814,49.814,0,0,0-.981,6.961c-.164,3.177-.3,6.377-.352,9.554a30.958,30.958,0,0,0,12.171-3.6,59.09,59.09,0,0,0,13.548-9.46C780.369,389.681,726.081,345.067,708.772,429.651Zm32.12-29.176c-1.169,9.344-8.457,18.43-15.161,24.574a47.07,47.07,0,0,1-5.747,4.579c2.289-10.442,6.213-23.383,12.684-31.605.934-1.194,4.9-5.537,6.8-5.281C741.125,393.678,741.078,398.98,740.892,400.475Z" transform="translate(-707.44 -381.778)" fill="#d21113" fill-rule="evenodd"/>
      </g>
      <g id="Group_25" data-name="Group 25" transform="translate(812.535 203.871)">
        <path id="Path_37" data-name="Path 37" d="M708.772,429.651a49.814,49.814,0,0,0-.981,6.961c-.164,3.177-.3,6.377-.352,9.554a30.958,30.958,0,0,0,12.171-3.6,59.09,59.09,0,0,0,13.548-9.46C780.369,389.681,726.081,345.067,708.772,429.651Zm32.12-29.176c-1.169,9.344-8.457,18.43-15.161,24.574a47.07,47.07,0,0,1-5.747,4.579c2.289-10.442,6.213-23.383,12.684-31.605.934-1.194,4.9-5.537,6.8-5.281C741.125,393.678,741.078,398.98,740.892,400.475Z" transform="translate(-707.44 -381.778)" fill="#d21113" fill-rule="evenodd"/>
      </g>
      <g id="Group_26" data-name="Group 26" transform="translate(639.66 202.316)">
        <path id="Path_38" data-name="Path 38" d="M683.181,381.367c-29.97,4.768-51.648,74.986-49.616,100.494a46.948,46.948,0,0,0,3.9,16.282c1.985,4.158,5,8.083,9.974,8.083,25.322,0,34.432-105.772,38.1-125.113C684.746,381.159,683.951,381.252,683.181,381.367Zm-12.03,22.965c-1.73,12.567-3.6,25.111-5.957,37.585-2.336,12.448-5.162,25.625-9.484,37.539-1.005,2.8-4.7,11.983-7.778,15.065a9.769,9.769,0,0,1-.561-1.1A36.036,36.036,0,0,1,644.5,481c-1.1-13.618,5.373-35.9,10.232-48.541,2.779-7.218,9.016-21.234,16.772-30.694C671.383,402.626,671.267,403.491,671.151,404.332Z" transform="translate(-633.433 -381.112)" fill="#d21113" fill-rule="evenodd"/>
      </g>
      <path id="Path_39" data-name="Path 39" d="M663.137,487.345a156.016,156.016,0,0,0-11.843,19.6c-4.368,8.456-27.143,55.383-18.454,63.047a6.832,6.832,0,0,0,4.626,1.425,18.469,18.469,0,0,0,6.938-1.192h.047c17.847-6.353,25.344-63.444,27.494-83.7.28-2.873.584-5.747.864-8.62.047-.677.118-1.331.188-1.986A79.017,79.017,0,0,0,663.137,487.345Zm.351,14.6c-.3,1.845-.794,5.91-1.075,7.779-2.1,13.032-9.578,47.279-17.637,50.713h-.022a5.871,5.871,0,0,1-3.061.514c-.7-.07-1.728-.187-1.915-1.1-1.26-6.167,5.116-25.065,7.5-30.367,1.892-4.251,8.036-18.22,10.325-22.054,1.472-2.5,5.722-11.163,7.522-13.243C665.053,494.61,663.535,501.5,663.488,501.945Z" transform="translate(2.817 -52.135)" fill="#d21113" fill-rule="evenodd"/>
      <path id="Path_40" data-name="Path 40" d="M663.137,487.345a156.016,156.016,0,0,0-11.843,19.6c-4.368,8.456-27.143,55.383-18.454,63.047a6.832,6.832,0,0,0,4.626,1.425,18.469,18.469,0,0,0,6.938-1.192h.047c17.847-6.353,25.344-63.444,27.494-83.7.28-2.873.584-5.747.864-8.62.047-.677.118-1.331.188-1.986A79.017,79.017,0,0,0,663.137,487.345Zm.351,14.6c-.3,1.845-.794,5.91-1.075,7.779-2.1,13.032-9.578,47.279-17.637,50.713h-.022a5.871,5.871,0,0,1-3.061.514c-.7-.07-1.728-.187-1.915-1.1-1.26-6.167,5.116-25.065,7.5-30.367,1.892-4.251,8.036-18.22,10.325-22.054,1.472-2.5,5.722-11.163,7.522-13.243C665.053,494.61,663.535,501.5,663.488,501.945Z" transform="translate(2.817 -52.135)" fill="#d21113" fill-rule="evenodd"/>
      <g id="Group_27" data-name="Group 27" transform="translate(639.66 202.316)">
        <path id="Path_41" data-name="Path 41" d="M683.181,381.367c-29.97,4.768-51.648,74.986-49.616,100.494a46.948,46.948,0,0,0,3.9,16.282c1.985,4.158,5,8.083,9.974,8.083,25.322,0,34.432-105.772,38.1-125.113C684.746,381.159,683.951,381.252,683.181,381.367Zm-12.03,22.965c-1.73,12.567-3.6,25.111-5.957,37.585-2.336,12.448-5.162,25.625-9.484,37.539-1.005,2.8-4.7,11.983-7.778,15.065a9.769,9.769,0,0,1-.561-1.1A36.036,36.036,0,0,1,644.5,481c-1.1-13.618,5.373-35.9,10.232-48.541,2.779-7.218,9.016-21.234,16.772-30.694C671.383,402.626,671.267,403.491,671.151,404.332Z" transform="translate(-633.433 -381.112)" fill="#d21113" fill-rule="evenodd"/>
      </g>
      <g id="Group_28" data-name="Group 28" transform="translate(812.535 203.871)">
        <path id="Path_42" data-name="Path 42" d="M708.772,429.651a49.814,49.814,0,0,0-.981,6.961c-.164,3.177-.3,6.377-.352,9.554a30.958,30.958,0,0,0,12.171-3.6,59.09,59.09,0,0,0,13.548-9.46C780.369,389.681,726.081,345.067,708.772,429.651Zm32.12-29.176c-1.169,9.344-8.457,18.43-15.161,24.574a47.07,47.07,0,0,1-5.747,4.579c2.289-10.442,6.213-23.383,12.684-31.605.934-1.194,4.9-5.537,6.8-5.281C741.125,393.678,741.078,398.98,740.892,400.475Z" transform="translate(-707.44 -381.778)" fill="#d21113" fill-rule="evenodd"/>
      </g>
      <g id="Group_29" data-name="Group 29" transform="translate(812.535 203.871)">
        <path id="Path_43" data-name="Path 43" d="M708.772,429.651a49.814,49.814,0,0,0-.981,6.961c-.164,3.177-.3,6.377-.352,9.554a30.958,30.958,0,0,0,12.171-3.6,59.09,59.09,0,0,0,13.548-9.46C780.369,389.681,726.081,345.067,708.772,429.651Zm32.12-29.176c-1.169,9.344-8.457,18.43-15.161,24.574a47.07,47.07,0,0,1-5.747,4.579c2.289-10.442,6.213-23.383,12.684-31.605.934-1.194,4.9-5.537,6.8-5.281C741.125,393.678,741.078,398.98,740.892,400.475Z" transform="translate(-707.44 -381.778)" fill="#d21113" fill-rule="evenodd"/>
      </g>
      <g id="Group_30" data-name="Group 30" transform="translate(639.66 202.316)">
        <path id="Path_44" data-name="Path 44" d="M683.181,381.367c-29.97,4.768-51.648,74.986-49.616,100.494a46.948,46.948,0,0,0,3.9,16.282c1.985,4.158,5,8.083,9.974,8.083,25.322,0,34.432-105.772,38.1-125.113C684.746,381.159,683.951,381.252,683.181,381.367Zm-12.03,22.965c-1.73,12.567-3.6,25.111-5.957,37.585-2.336,12.448-5.162,25.625-9.484,37.539-1.005,2.8-4.7,11.983-7.778,15.065a9.769,9.769,0,0,1-.561-1.1A36.036,36.036,0,0,1,644.5,481c-1.1-13.618,5.373-35.9,10.232-48.541,2.779-7.218,9.016-21.234,16.772-30.694C671.383,402.626,671.267,403.491,671.151,404.332Z" transform="translate(-633.433 -381.112)" fill="#d21113" fill-rule="evenodd"/>
      </g>
      <path id="Path_45" data-name="Path 45" d="M663.137,487.345a156.016,156.016,0,0,0-11.843,19.6c-4.368,8.456-27.143,55.383-18.454,63.047a6.832,6.832,0,0,0,4.626,1.425,18.469,18.469,0,0,0,6.938-1.192h.047c17.847-6.353,25.344-63.444,27.494-83.7.28-2.873.584-5.747.864-8.62.047-.677.118-1.331.188-1.986A79.017,79.017,0,0,0,663.137,487.345Zm.351,14.6c-.3,1.845-.794,5.91-1.075,7.779-2.1,13.032-9.578,47.279-17.637,50.713h-.022a5.871,5.871,0,0,1-3.061.514c-.7-.07-1.728-.187-1.915-1.1-1.26-6.167,5.116-25.065,7.5-30.367,1.892-4.251,8.036-18.22,10.325-22.054,1.472-2.5,5.722-11.163,7.522-13.243C665.053,494.61,663.535,501.5,663.488,501.945Z" transform="translate(2.817 -52.135)" fill="#d21113" fill-rule="evenodd"/>
      <g id="Group_31" data-name="Group 31" transform="translate(812.535 203.871)">
        <path id="Path_46" data-name="Path 46" d="M708.772,429.651a49.814,49.814,0,0,0-.981,6.961c-.164,3.177-.3,6.377-.352,9.554a30.958,30.958,0,0,0,12.171-3.6,59.09,59.09,0,0,0,13.548-9.46C780.369,389.681,726.081,345.067,708.772,429.651Zm32.12-29.176c-1.169,9.344-8.457,18.43-15.161,24.574a47.07,47.07,0,0,1-5.747,4.579c2.289-10.442,6.213-23.383,12.684-31.605.934-1.194,4.9-5.537,6.8-5.281C741.125,393.678,741.078,398.98,740.892,400.475Z" transform="translate(-707.44 -381.778)" fill="#d21113" fill-rule="evenodd"/>
      </g>
      <g id="Group_32" data-name="Group 32" transform="translate(639.66 202.316)">
        <path id="Path_47" data-name="Path 47" d="M683.181,381.367c-29.97,4.768-51.648,74.986-49.616,100.494a46.948,46.948,0,0,0,3.9,16.282c1.985,4.158,5,8.083,9.974,8.083,25.322,0,34.432-105.772,38.1-125.113C684.746,381.159,683.951,381.252,683.181,381.367Zm-12.03,22.965c-1.73,12.567-3.6,25.111-5.957,37.585-2.336,12.448-5.162,25.625-9.484,37.539-1.005,2.8-4.7,11.983-7.778,15.065a9.769,9.769,0,0,1-.561-1.1A36.036,36.036,0,0,1,644.5,481c-1.1-13.618,5.373-35.9,10.232-48.541,2.779-7.218,9.016-21.234,16.772-30.694C671.383,402.626,671.267,403.491,671.151,404.332Z" transform="translate(-633.433 -381.112)" fill="#d21113" fill-rule="evenodd"/>
      </g>
      <path id="Path_48" data-name="Path 48" d="M663.137,487.345a156.016,156.016,0,0,0-11.843,19.6c-4.368,8.456-27.143,55.383-18.454,63.047a6.832,6.832,0,0,0,4.626,1.425,18.469,18.469,0,0,0,6.938-1.192h.047c17.847-6.353,25.344-63.444,27.494-83.7.28-2.873.584-5.747.864-8.62.047-.677.118-1.331.188-1.986A79.017,79.017,0,0,0,663.137,487.345Zm.351,14.6c-.3,1.845-.794,5.91-1.075,7.779-2.1,13.032-9.578,47.279-17.637,50.713h-.022a5.871,5.871,0,0,1-3.061.514c-.7-.07-1.728-.187-1.915-1.1-1.26-6.167,5.116-25.065,7.5-30.367,1.892-4.251,8.036-18.22,10.325-22.054,1.472-2.5,5.722-11.163,7.522-13.243C665.053,494.61,663.535,501.5,663.488,501.945Z" transform="translate(2.817 -52.135)" fill="#d21113" fill-rule="evenodd"/>
      <g id="Group_33" data-name="Group 33" transform="translate(639.66 202.316)">
        <path id="Path_49" data-name="Path 49" d="M683.181,381.367c-29.97,4.768-51.648,74.986-49.616,100.494a46.948,46.948,0,0,0,3.9,16.282c1.985,4.158,5,8.083,9.974,8.083,25.322,0,34.432-105.772,38.1-125.113C684.746,381.159,683.951,381.252,683.181,381.367Zm-12.03,22.965c-1.73,12.567-3.6,25.111-5.957,37.585-2.336,12.448-5.162,25.625-9.484,37.539-1.005,2.8-4.7,11.983-7.778,15.065a9.769,9.769,0,0,1-.561-1.1A36.036,36.036,0,0,1,644.5,481c-1.1-13.618,5.373-35.9,10.232-48.541,2.779-7.218,9.016-21.234,16.772-30.694C671.383,402.626,671.267,403.491,671.151,404.332Z" transform="translate(-633.433 -381.112)" fill="#d21113" fill-rule="evenodd"/>
      </g>
      <path id="Path_50" data-name="Path 50" d="M663.137,487.345a156.016,156.016,0,0,0-11.843,19.6c-4.368,8.456-27.143,55.383-18.454,63.047a6.832,6.832,0,0,0,4.626,1.425,18.469,18.469,0,0,0,6.938-1.192h.047c17.847-6.353,25.344-63.444,27.494-83.7.28-2.873.584-5.747.864-8.62.047-.677.118-1.331.188-1.986A79.017,79.017,0,0,0,663.137,487.345Zm.351,14.6c-.3,1.845-.794,5.91-1.075,7.779-2.1,13.032-9.578,47.279-17.637,50.713h-.022a5.871,5.871,0,0,1-3.061.514c-.7-.07-1.728-.187-1.915-1.1-1.26-6.167,5.116-25.065,7.5-30.367,1.892-4.251,8.036-18.22,10.325-22.054,1.472-2.5,5.722-11.163,7.522-13.243C665.053,494.61,663.535,501.5,663.488,501.945Z" transform="translate(2.817 -52.135)" fill="#d21113" fill-rule="evenodd"/>
      <g id="Group_34" data-name="Group 34" transform="translate(812.535 203.871)">
        <path id="Path_51" data-name="Path 51" d="M708.772,429.651a49.814,49.814,0,0,0-.981,6.961c-.164,3.177-.3,6.377-.352,9.554a30.958,30.958,0,0,0,12.171-3.6,59.09,59.09,0,0,0,13.548-9.46C780.369,389.681,726.081,345.067,708.772,429.651Zm32.12-29.176c-1.169,9.344-8.457,18.43-15.161,24.574a47.07,47.07,0,0,1-5.747,4.579c2.289-10.442,6.213-23.383,12.684-31.605.934-1.194,4.9-5.537,6.8-5.281C741.125,393.678,741.078,398.98,740.892,400.475Z" transform="translate(-707.44 -381.778)" fill="#d21113" fill-rule="evenodd"/>
      </g>
    </g>
  </g>
</svg>
